<svg xmlns="http://www.w3.org/2000/svg" xmlns:xlink="http://www.w3.org/1999/xlink" width="1080" height="1080" style="width:100%;height:100%;transform:translate3d(0,0,0);content-visibility:visible"><defs><mask id="cn" mask-type="alpha"><use xlink:href="#a"/></mask><mask id="cl" mask-type="alpha"><g filter="url(#b)"><use xlink:href="#c"/></g></mask><mask id="ck" mask-type="alpha"><use xlink:href="#d"/></mask><mask id="cj" mask-type="alpha"><use xlink:href="#e"/></mask><mask id="ch" mask-type="alpha"><g filter="url(#f)"><use xlink:href="#g"/></g></mask><mask id="cf" mask-type="alpha"><use xlink:href="#h"/></mask><mask id="cd" mask-type="alpha"><g filter="url(#i)"><use xlink:href="#j"/></g></mask><mask id="cc" mask-type="alpha"><use xlink:href="#k"/></mask><mask id="cb" mask-type="alpha"><use xlink:href="#l"/></mask><mask id="bZ" mask-type="alpha"><g filter="url(#m)"><use xlink:href="#n"/></g></mask><mask id="bX" mask-type="alpha"><use xlink:href="#o"/></mask><mask id="bV" mask-type="alpha"><g filter="url(#p)"><use xlink:href="#q"/></g></mask><mask id="bU" mask-type="alpha"><use xlink:href="#r"/></mask><mask id="bT" mask-type="alpha"><use xlink:href="#s"/></mask><mask id="bR" mask-type="alpha"><g filter="url(#t)"><use xlink:href="#u"/></g></mask><mask id="bH" mask-type="alpha"><use xlink:href="#v"/></mask><mask id="bG" mask-type="alpha"><use xlink:href="#w"/></mask><mask id="bE" mask-type="alpha"><use xlink:href="#x"/></mask><mask id="bD" mask-type="alpha"><use xlink:href="#y"/></mask><mask id="bB" mask-type="alpha"><use xlink:href="#z"/></mask><mask id="bA" mask-type="alpha"><use xlink:href="#A"/></mask><mask id="by" mask-type="alpha"><use xlink:href="#B"/></mask><mask id="bx" mask-type="alpha"><use xlink:href="#C"/></mask><mask id="bu" mask-type="alpha"><use xlink:href="#D"/></mask><mask id="bv" mask-type="alpha"><use xlink:href="#E"/></mask><mask id="br" mask-type="alpha"><use xlink:href="#F"/></mask><mask id="bs" mask-type="alpha"><use xlink:href="#G"/></mask><mask id="bo" mask-type="alpha"><use xlink:href="#H"/></mask><mask id="bp" mask-type="alpha"><use xlink:href="#I"/></mask><mask id="bl" mask-type="alpha"><use xlink:href="#J"/></mask><mask id="bm" mask-type="alpha"><use xlink:href="#K"/></mask><mask id="bh" mask-type="alpha"><use xlink:href="#L"/></mask><mask id="bd" mask-type="alpha"><use xlink:href="#M"/></mask><mask id="aZ" mask-type="alpha"><use xlink:href="#N"/></mask><mask id="aX" mask-type="alpha"><use xlink:href="#O"/></mask><mask id="aW" mask-type="alpha"><use xlink:href="#P"/></mask><mask id="aV" mask-type="alpha"><use xlink:href="#Q"/></mask><mask id="aT" mask-type="alpha"><use xlink:href="#R"/></mask><mask id="aS" mask-type="alpha"><use xlink:href="#S"/></mask><mask id="aR" mask-type="alpha"><use xlink:href="#T"/></mask><mask id="aP" mask-type="alpha"><use xlink:href="#U"/></mask><mask id="aO" mask-type="alpha"><use xlink:href="#V"/></mask><mask id="aN" mask-type="alpha"><use xlink:href="#W"/></mask><mask id="aL" mask-type="alpha"><use xlink:href="#X"/></mask><mask id="aK" mask-type="alpha"><use xlink:href="#Y"/></mask><mask id="aJ" mask-type="alpha"><use xlink:href="#Z"/></mask><mask id="aG" mask-type="alpha"><use xlink:href="#aa"/></mask><mask id="aF" mask-type="alpha"><use xlink:href="#ab"/></mask><mask id="aE" mask-type="alpha"><use xlink:href="#ac"/></mask><mask id="aC" mask-type="alpha"><use xlink:href="#ad"/></mask><mask id="az" mask-type="alpha"><use xlink:href="#ae"/></mask><mask id="ay" mask-type="alpha"><use xlink:href="#af"/></mask><mask id="ax" mask-type="alpha"><use xlink:href="#ag"/></mask><mask id="av" mask-type="alpha"><use xlink:href="#ah"/></mask><mask id="as" mask-type="alpha"><use xlink:href="#ai"/></mask><mask id="ar" mask-type="alpha"><use xlink:href="#aj"/></mask><mask id="aq" mask-type="alpha"><use xlink:href="#ak"/></mask><mask id="ao" mask-type="alpha"><use xlink:href="#al"/></mask><clipPath id="am"><path d="M0 0h1080v1080H0z"/></clipPath><clipPath id="cg"><path d="M0 0h1920v1079H0z"/></clipPath><clipPath id="cm"><path d="M0 0h1920v1079H0z"/></clipPath><clipPath id="ci"><path d="M0 0h1920v1079H0z"/></clipPath><clipPath id="bY"><path d="M0 0h1920v1079H0z"/></clipPath><clipPath id="ce"><path d="M0 0h1920v1079H0z"/></clipPath><clipPath id="ca"><path d="M0 0h1920v1079H0z"/></clipPath><clipPath id="bQ"><path d="M0 0h1920v1079H0z"/></clipPath><clipPath id="bW"><path d="M0 0h1920v1079H0z"/></clipPath><clipPath id="bS"><path d="M0 0h1920v1079H0z"/></clipPath><clipPath id="bP"><path d="M0 0h1920v1079H0z"/></clipPath><clipPath id="bO"><path d="M0 0h1920v1079H0z"/></clipPath><clipPath id="bN"><path d="M0 0h1920v1079H0z"/></clipPath><clipPath id="bM"><path d="M0 0h1920v1079H0z"/></clipPath><clipPath id="bL"><path d="M0 0h1920v1079H0z"/></clipPath><clipPath id="bK"><path d="M0 0h1920v1079H0z"/></clipPath><clipPath id="bJ"><path d="M0 0h1920v1079H0z"/></clipPath><clipPath id="bI"><path d="M0 0h1920v1079H0z"/></clipPath><clipPath id="bF"><path d="M0 0h1920v1079H0z"/></clipPath><clipPath id="bC"><path d="M0 0h1920v1079H0z"/></clipPath><clipPath id="bz"><path d="M0 0h1920v1079H0z"/></clipPath><clipPath id="bw"><path d="M0 0h1920v1079H0z"/></clipPath><clipPath id="bt"><path d="M0 0h1920v1079H0z"/></clipPath><clipPath id="bq"><path d="M0 0h1920v1079H0z"/></clipPath><clipPath id="bn"><path d="M0 0h1920v1079H0z"/></clipPath><clipPath id="bk"><path d="M0 0h1920v1079H0z"/></clipPath><clipPath id="bg"><path d="M0 0h1920v1079H0z"/></clipPath><clipPath id="bi"><path d="M0 0h1920v1079H0z"/></clipPath><clipPath id="bc"><path d="M0 0h1920v1079H0z"/></clipPath><clipPath id="be"><path d="M0 0h1920v1079H0z"/></clipPath><clipPath id="aY"><path d="M0 0h1920v1079H0z"/></clipPath><clipPath id="ba"><path d="M0 0h1920v1079H0z"/></clipPath><clipPath id="aU"><path d="M0 0h1920v1079H0z"/></clipPath><clipPath id="aQ"><path d="M0 0h1920v1079H0z"/></clipPath><clipPath id="aM"><path d="M0 0h1920v1079H0z"/></clipPath><clipPath id="aI"><path d="M0 0h1920v1079H0z"/></clipPath><clipPath id="aB"><path d="M0 0h1920v1079H0z"/></clipPath><clipPath id="aH"><path d="M0 0h1920v1079H0z"/></clipPath><clipPath id="aD"><path d="M0 0h1920v1079H0z"/></clipPath><clipPath id="au"><path d="M0 0h1920v1079H0z"/></clipPath><clipPath id="aA"><path d="M0 0h1920v1079H0z"/></clipPath><clipPath id="aw"><path d="M0 0h1920v1079H0z"/></clipPath><clipPath id="an"><path d="M0 0h1920v1079H0z"/></clipPath><clipPath id="at"><path d="M0 0h1920v1079H0z"/></clipPath><clipPath id="ap"><path d="M0 0h1920v1079H0z"/></clipPath><path fill="#DB8D74" d="M521.5 303c-16.5 11-42 12.5-66 13.5s-53.834 22.53-51 52c2.5 26 27.5 43 54.5 43.5 30.012.556 61-2.5 100.5-24s36.5-55.5 23.5-77-45-19-61.5-8z" transform="rotate(-6 6207.043 -8631.536)" style="display:block" id="e"/><path fill="#DB8D74" d="M521.5 303c-16.5 11-42 12.5-66 13.5s-53.834 22.53-51 52c2.5 26 27.5 43 54.5 43.5 30.012.556 61-2.5 100.5-24s36.5-55.5 23.5-77-45-19-61.5-8z" transform="translate(975 551.5)" style="display:block" id="l"/><path fill="#DB8D74" d="M482.763 275.603c-62.54 10.163-70.236 76.625-62.591 127.106 8.645 49.929 23.159 76.255 59.745 71.089 30.143-4.48 46.95-27.825 42.718-65.137-4.113-34.11 2.888-55.598 6.279-76.482 5.387-32.209-15.527-60.714-46.15-56.576z" transform="rotate(35.667 107.154 2195.246)" style="display:block" id="o"/><path fill="#DB8D74" d="M521.5 303c-16.5 11-42 12.5-66 13.5s-53.834 22.53-51 52c2.5 26 27.5 43 54.5 43.5 30.012.556 61-2.5 100.5-24s36.5-55.5 23.5-77-45-19-61.5-8z" transform="translate(975 551.5)" style="display:block" id="s"/><path fill="#FFCBA3" d="M208.585-408.855c-7.835-3.645-36.835-2.645-50.532 21.238-12.377 21.58-5.057 49.093 16.487 61.532 0 0 2.21 1.585 4.192 2.604C165-376.5 201.25-403.25 213.777-407.001c-1.277-.999-5.192-1.854-5.192-1.854z" transform="rotate(.02 -2326156.838 4082455.061)" style="display:block" id="v"/><path fill="#B23232" d="m181.611-391.64 1.47 3.198c1.386 3.013.04 6.561-3.004 7.925-3.045 1.363-6.635.025-8.02-2.989l-1.47-3.198c-1.386-3.014-.041-6.561 3.004-7.925 3.044-1.363 6.635-.026 8.02 2.988z" transform="rotate(.02 -2326156.838 4082455.061)" style="display:block" id="w"/><path fill="#FFCBA3" d="M208.585-408.855c-7.835-3.645-36.835-2.645-50.532 21.238-12.377 21.58-5.057 49.093 16.487 61.532 0 0 2.21 1.585 4.192 2.604C165-376.5 201.25-403.25 213.777-407.001c-1.277-.999-5.192-1.854-5.192-1.854z" transform="rotate(1.837 -17736.204 32281.864)" style="display:block" id="x"/><path fill="#B23232" d="m184.04-391.362 1.144 3.365c1.078 3.171-.746 6.527-4.074 7.494-3.328.967-6.9-.822-7.979-3.993l-1.144-3.366c-1.078-3.172.747-6.526 4.075-7.493 3.328-.967 6.9.82 7.978 3.993z" transform="rotate(1.837 -17736.204 32281.864)" style="display:block" id="y"/><path fill="#FFCBA3" d="M208.585-408.855c-7.835-3.645-36.835-2.645-50.532 21.238-12.377 21.58-5.057 49.093 16.487 61.532 0 0 2.21 1.585 4.192 2.604C165-376.5 201.25-403.25 213.777-407.001c-1.277-.999-5.192-1.854-5.192-1.854z" transform="rotate(1.568 -20927.52 37851.114)" style="display:block" id="z"/><path fill="#B23232" d="m184.23-391.34 1.119 3.378c1.054 3.184-.808 6.524-4.159 7.46-3.35.936-6.92-.888-7.975-4.072l-1.118-3.378c-1.054-3.185.808-6.524 4.158-7.46 3.35-.936 6.921.887 7.975 4.071z" transform="rotate(1.568 -20927.52 37851.114)" style="display:block" id="A"/><path fill="#FFCBA3" d="M208.585-408.855c-7.835-3.645-36.835-2.645-50.532 21.238-12.377 21.58-5.057 49.093 16.487 61.532 0 0 2.21 1.585 4.192 2.604C165-376.5 201.25-403.25 213.777-407.001c-1.277-.999-5.192-1.854-5.192-1.854z" transform="rotate(1.568 -20927.273 37851.03)" style="display:block" id="B"/><path fill="#B23232" d="m184.225-391.341 1.12 3.378c1.054 3.183-.807 6.524-4.156 7.46-3.35.938-6.921-.885-7.976-4.069l-1.12-3.378c-1.053-3.184.808-6.524 4.157-7.46 3.35-.938 6.921.884 7.975 4.069z" transform="rotate(1.568 -20927.273 37851.03)" style="display:block" id="C"/><path fill="#58CC02" d="M318.202-45.464c15.252 94.999-31.572 144.035-95.655 159.537-84.448 20.428-134.794-43.146-151.05-96.71C16-165.5 158.631-177.933 166.59-174.39a21.642 21.642 0 0 0 13.898 1.277c13.72-3.334 29.364-13.462 52.062-24.71 28.634-14.19 72.547 1.407 71.323 40.679 0 0 5.505 56.717 14.329 111.68zm-15 4c15.252 94.999-16.572 140.035-80.655 155.537-84.448 20.428-144.155-35.09-168.05-85.71C36.399-9.976 31.209-79.308 31.209-79.308c-2.443-42.408 8.57-88.445 47.15-106.222 17.568-8.095 35.66-11.367 49.816-6.28 21.939 7.884 30.456 13.877 38.415 17.42 4.363 1.942 127.788 77.963 136.612 132.926z" transform="rotate(-2.646 13776.4 -22136.3)" style="display:block" id="E"/><path fill="#58CC02" d="M318.202-45.464c15.252 94.999-31.572 144.035-95.655 159.537-84.448 20.428-134.794-43.146-151.05-96.71C16-165.5 158.631-177.933 166.59-174.39a21.642 21.642 0 0 0 13.898 1.277c13.72-3.334 29.364-13.462 52.062-24.71 28.634-14.19 72.547 1.407 71.323 40.679 0 0 5.505 56.717 14.329 111.68zm-15 4c15.252 94.999-16.572 140.035-80.655 155.537-84.448 20.428-144.155-35.09-168.05-85.71C36.399-9.976 31.209-79.308 31.209-79.308c-2.443-42.408 8.57-88.445 47.15-106.222 17.568-8.095 35.66-11.367 49.816-6.28 21.939 7.884 30.456 13.877 38.415 17.42 4.363 1.942 127.788 77.963 136.612 132.926z" transform="rotate(-.993 35675.321 -59583.943)" style="display:block" id="G"/><path fill="#58CC02" d="M318.202-45.464c15.252 94.999-31.572 144.035-95.655 159.537-84.448 20.428-134.794-43.146-151.05-96.71C16-165.5 158.631-177.933 166.59-174.39a21.642 21.642 0 0 0 13.898 1.277c13.72-3.334 29.364-13.462 52.062-24.71 28.634-14.19 72.547 1.407 71.323 40.679 0 0 5.505 56.717 14.329 111.68zm-15 4c15.252 94.999-16.572 140.035-80.655 155.537-84.448 20.428-144.155-35.09-168.05-85.71C36.399-9.976 31.209-79.308 31.209-79.308c-2.443-42.408 8.57-88.445 47.15-106.222 17.568-8.095 35.66-11.367 49.816-6.28 21.939 7.884 30.456 13.877 38.415 17.42 4.363 1.942 127.788 77.963 136.612 132.926z" transform="rotate(-2.989 12395.394 -19598.074)" style="display:block" id="I"/><path fill="#58CC02" d="M318.202-45.464c15.252 94.999-31.572 144.035-95.655 159.537-84.448 20.428-134.794-43.146-151.05-96.71C16-165.5 158.631-177.933 166.59-174.39a21.642 21.642 0 0 0 13.898 1.277c13.72-3.334 29.364-13.462 52.062-24.71 28.634-14.19 72.547 1.407 71.323 40.679 0 0 5.505 56.717 14.329 111.68zm-15 4c15.252 94.999-16.572 140.035-80.655 155.537-84.448 20.428-144.155-35.09-168.05-85.71C36.399-9.976 31.209-79.308 31.209-79.308c-2.443-42.408 8.57-88.445 47.15-106.222 17.568-8.095 35.66-11.367 49.816-6.28 21.939 7.884 30.456 13.877 38.415 17.42 4.363 1.942 127.788 77.963 136.612 132.926z" transform="rotate(-2.985 12394.635 -19619.16)" style="display:block" id="K"/><path fill="#FFC7B8" d="M552.811-154.957c-14.873-8.982-34.962-11.237-52.179-1.891l-28.256 15.339a51.11 51.11 0 0 0-25.616 34.316l-7.98 37.63C434.57-49.714 440-30 458.986-17.428 477.972-4.856 510.5 12 528.501 43.852c6.897 12.204 42.974 11.603 54.934 7.15l38.691-9.376A38.335 38.335 0 0 0 651.93 8.839l6.319-51.72c-.568-6.318-6.973-19.296-11.519-26.102C621-107.5 590-132.5 552.811-154.957z" transform="rotate(-2.255 15639.223 -24666.89)" style="display:block" id="L"/><path fill="#FFC7B8" d="M552.811-154.957c-14.873-8.982-34.962-11.237-52.179-1.891l-28.256 15.339a51.11 51.11 0 0 0-25.616 34.316l-7.98 37.63C434.57-49.714 440-30 458.986-17.428 477.972-4.856 510.5 12 528.501 43.852c6.897 12.204 42.974 11.603 54.934 7.15l38.691-9.376A38.335 38.335 0 0 0 651.93 8.839l6.319-51.72c-.568-6.318-6.973-19.296-11.519-26.102C621-107.5 590-132.5 552.811-154.957z" transform="rotate(-6.966 5759.877 -7826.362)" style="display:block" id="M"/><path fill="#FFC7B8" d="M552.811-154.957c-14.873-8.982-34.962-11.237-52.179-1.891l-28.256 15.339a51.11 51.11 0 0 0-25.616 34.316l-7.98 37.63C434.57-49.714 440-30 458.986-17.428 477.972-4.856 510.5 12 528.501 43.852c6.897 12.204 42.974 11.603 54.934 7.15l38.691-9.376A38.335 38.335 0 0 0 651.93 8.839l6.319-51.72c-.568-6.318-6.973-19.296-11.519-26.102C621-107.5 590-132.5 552.811-154.957z" transform="rotate(-6.966 5759.878 -7826.362)" style="display:block" id="N"/><path fill="#CC348D" d="M745.232-224.137c-.304-28.44 22.505-51.741 50.945-52.045 28.44-.304 51.741 22.506 52.045 50.946.304 28.44-22.505 51.74-50.945 52.044-28.44.304-51.741-22.505-52.045-50.945z" transform="rotate(-3.225 11773.017 -18195.726)" style="display:block" id="O"/><path fill="#0084C2" d="M732.862-124.382c4.759-25.473 29.266-42.264 54.739-37.505s42.265 29.265 37.506 54.738-29.266 42.265-54.739 37.506-42.265-29.266-37.506-54.739z" transform="rotate(3.225 -9135.546 18467.86)" style="display:block" id="P"/><path fill="#AFD5E0" d="M750.527-172.52c-2.856 6.832 153.036 310.917-59.97 264.614s1.1-278.504 4.916-287.632c3.816-9.128 19.234-11.375 34.437-5.019 15.203 6.356 24.433 18.909 20.617 28.037z" transform="rotate(-6.449 6505.285 -9054.674)" style="display:block" id="Q"/><path fill="#CC348D" d="M745.232-224.137c-.304-28.44 22.505-51.741 50.945-52.045 28.44-.304 51.741 22.506 52.045 50.946.304 28.44-22.505 51.74-50.945 52.044-28.44.304-51.741-22.505-52.045-50.945z" transform="rotate(-3.888 9985.941 -15062.123)" style="display:block" id="R"/><path fill="#0084C2" d="M732.862-124.382c4.759-25.473 29.266-42.264 54.739-37.505s42.265 29.265 37.506 54.738-29.266 42.265-54.739 37.506-42.265-29.266-37.506-54.739z" transform="rotate(3.888 -7349.167 15333.87)" style="display:block" id="S"/><path fill="#AFD5E0" d="M750.527-172.52c-2.856 6.832 153.036 310.917-59.97 264.614s1.1-278.504 4.916-287.632c3.816-9.128 19.234-11.375 34.437-5.019 15.203 6.356 24.433 18.909 20.617 28.037z" transform="rotate(-7.775 5610.135 -7484.795)" style="display:block" id="T"/><path fill="#CC348D" d="M745.232-224.137c-.304-28.44 22.505-51.741 50.945-52.045 28.44-.304 51.741 22.506 52.045 50.946.304 28.44-22.505 51.74-50.945 52.044-28.44.304-51.741-22.505-52.045-50.945z" transform="rotate(-5.989 6934.078 -9712.103)" style="display:block" id="U"/><path fill="#0084C2" d="M732.862-124.382c4.759-25.473 29.266-42.264 54.739-37.505s42.265 29.265 37.506 54.738-29.266 42.265-54.739 37.506-42.265-29.266-37.506-54.739z" transform="rotate(5.989 -4300.438 9982.162)" style="display:block" id="V"/><path fill="#AFD5E0" d="M750.527-172.52c-2.856 6.832 153.036 310.917-59.97 264.614s1.1-278.504 4.916-287.632c3.816-9.128 19.234-11.375 34.437-5.019 15.203 6.356 24.433 18.909 20.617 28.037z" transform="rotate(-11.978 4080.432 -4797.177)" style="display:block" id="W"/><path fill="#CC348D" d="M745.232-224.137c-.304-28.44 22.505-51.741 50.945-52.045 28.44-.304 51.741 22.506 52.045 50.946.304 28.44-22.505 51.74-50.945 52.044-28.44.304-51.741-22.505-52.045-50.945z" transform="rotate(-5.989 6934.078 -9712.103)" style="display:block" id="X"/><path fill="#0084C2" d="M732.862-124.382c4.759-25.473 29.266-42.264 54.739-37.505s42.265 29.265 37.506 54.738-29.266 42.265-54.739 37.506-42.265-29.266-37.506-54.739z" transform="rotate(5.989 -4300.438 9982.162)" style="display:block" id="Y"/><path fill="#AFD5E0" d="M750.527-172.52c-2.856 6.832 153.036 310.917-59.97 264.614s1.1-278.504 4.916-287.632c3.816-9.128 19.234-11.375 34.437-5.019 15.203 6.356 24.433 18.909 20.617 28.037z" transform="rotate(-11.976 4080.956 -4798.09)" style="display:block" id="Z"/><path fill="#FFF" d="M638.033-169.849c-41.207 112.587-110.385 302.331-170.99 469.348-11.827 32.594-21.429 51.144-71.04 55.59-84.82 7.601-163.41 13.29-252.041 16.588-15.917.592-33.228-11.412-36.908-42.619-14.53-123.235-31.678-302.891-47.058-481.524-2.828-32.845 23.041-69.646 70.892-70.091 112.027-1.042 349.193-14.511 455.264-10.36 34.205 1.339 62.292 34.624 51.881 63.068z" transform="rotate(-145 914.887 215.665) scale(.5)" style="display:block" id="aa"/><path fill="#FFF" d="M615.125 597.383S518.546 449.096 506.719 481.69c-11.827 32.594-61.105-131.047-110.716-126.601-84.82 7.601-163.41 13.29-252.041 16.588-15.917.592-33.228-11.412-36.908-42.619-14.53-123.235-31.678-302.891-47.058-481.524-2.828-32.845 23.041-69.646 70.892-70.091 112.027-1.042 349.193-14.511 455.264-10.36 34.205 1.339 62.292 34.624 51.881 63.068C596.826-57.262 923.151 9.427 923.151 9.427s83.359 177.85 82.666 179.759c-.334.919-390.692 408.197-390.692 408.197z" transform="rotate(-145 914.887 215.665) scale(.5)" style="display:block" id="ad"/><path fill="#FFF" d="M412.599 78.212c-6.132 3.04-7.257 9.111-7.45 10.036l-2.078 9.955c-.804 3.852 1.678 7.626 5.543 8.43l7.348 1.528c7.924 1.648 15.683-3.417 17.331-11.313.495-2.371 3.308-16.424 3.308-16.424s-16.193-6.083-24.002-2.212zm-14.702-3.734c3.902 5.915 3.593 9.268 3.279 11.761-.411 3.262-1.961 10.655-1.961 10.655-.863 4.124-4.939 6.767-9.102 5.904l-7.271-1.508c-8.179-1.696-13.434-9.638-11.738-17.74.661-3.158 3.897-16.189 3.897-16.189s19.186 1.492 22.896 7.117z" transform="rotate(-.773 44097.058 -72757.563)" style="display:block" id="ab"/><path fill="#FFF" d="M412.599 78.212c-6.132 3.04-7.257 9.111-7.45 10.036l-2.078 9.955c-.804 3.852 1.678 7.626 5.543 8.43l7.348 1.528c7.924 1.648 15.683-3.417 17.331-11.313.495-2.371 3.308-16.424 3.308-16.424s-16.193-6.083-24.002-2.212zm-14.702-3.734c3.902 5.915 3.593 9.268 3.279 11.761-.411 3.262-1.961 10.655-1.961 10.655-.863 4.124-4.939 6.767-9.102 5.904l-7.271-1.508c-8.179-1.696-13.434-9.638-11.738-17.74.661-3.158 3.897-16.189 3.897-16.189s19.186 1.492 22.896 7.117z" transform="rotate(-.773 44097.058 -72757.563)" style="display:block" id="ac"/><path fill="#FFF" d="M638.033-169.849c-41.207 112.587-110.385 302.331-170.99 469.348-11.827 32.594-21.429 51.144-71.04 55.59-84.82 7.601-163.41 13.29-252.041 16.588-15.917.592-33.228-11.412-36.908-42.619-14.53-123.235-31.678-302.891-47.058-481.524-2.828-32.845 23.041-69.646 70.892-70.091 112.027-1.042 349.193-14.511 455.264-10.36 34.205 1.339 62.292 34.624 51.881 63.068z" transform="rotate(-145 914.887 215.665) scale(.5)" style="display:block" id="ae"/><path fill="#FFF" d="M615.125 597.383S518.546 449.096 506.719 481.69c-11.827 32.594-61.105-131.047-110.716-126.601-84.82 7.601-163.41 13.29-252.041 16.588-15.917.592-33.228-11.412-36.908-42.619-14.53-123.235-31.678-302.891-47.058-481.524-2.828-32.845 23.041-69.646 70.892-70.091 112.027-1.042 349.193-14.511 455.264-10.36 34.205 1.339 62.292 34.624 51.881 63.068C596.826-57.262 923.151 9.427 923.151 9.427s83.359 177.85 82.666 179.759c-.334.919-390.692 408.197-390.692 408.197z" transform="rotate(-145 914.887 215.665) scale(.5)" style="display:block" id="ah"/><path fill="#FFF" d="M412.599 78.212c-6.132 3.04-7.257 9.111-7.45 10.036l-2.078 9.955c-.804 3.852 1.678 7.626 5.543 8.43l7.348 1.528c7.924 1.648 15.683-3.417 17.331-11.313.495-2.371 3.308-16.424 3.308-16.424s-16.193-6.083-24.002-2.212zm-14.702-3.734c3.902 5.915 3.593 9.268 3.279 11.761-.411 3.262-1.961 10.655-1.961 10.655-.863 4.124-4.939 6.767-9.102 5.904l-7.271-1.508c-8.179-1.696-13.434-9.638-11.738-17.74.661-3.158 3.897-16.189 3.897-16.189s19.186 1.492 22.896 7.117z" transform="rotate(-5 7434.013 -10806.563)" style="display:block" id="af"/><path fill="#FFF" d="M412.599 78.212c-6.132 3.04-7.257 9.111-7.45 10.036l-2.078 9.955c-.804 3.852 1.678 7.626 5.543 8.43l7.348 1.528c7.924 1.648 15.683-3.417 17.331-11.313.495-2.371 3.308-16.424 3.308-16.424s-16.193-6.083-24.002-2.212zm-14.702-3.734c3.902 5.915 3.593 9.268 3.279 11.761-.411 3.262-1.961 10.655-1.961 10.655-.863 4.124-4.939 6.767-9.102 5.904l-7.271-1.508c-8.179-1.696-13.434-9.638-11.738-17.74.661-3.158 3.897-16.189 3.897-16.189s19.186 1.492 22.896 7.117z" transform="rotate(-5 7434.013 -10806.563)" style="display:block" id="ag"/><path fill="#FFF" d="M638.033-169.849c-41.207 112.587-110.385 302.331-170.99 469.348-11.827 32.594-21.429 51.144-71.04 55.59-84.82 7.601-163.41 13.29-252.041 16.588-15.917.592-33.228-11.412-36.908-42.619-14.53-123.235-31.678-302.891-47.058-481.524-2.828-32.845 23.041-69.646 70.892-70.091 112.027-1.042 349.193-14.511 455.264-10.36 34.205 1.339 62.292 34.624 51.881 63.068z" transform="rotate(-145 914.887 215.665) scale(.5)" style="display:block" id="ai"/><path fill="#FFF" d="M615.125 597.383S518.546 449.096 506.719 481.69c-11.827 32.594-61.105-131.047-110.716-126.601-84.82 7.601-163.41 13.29-252.041 16.588-15.917.592-33.228-11.412-36.908-42.619-14.53-123.235-31.678-302.891-47.058-481.524-2.828-32.845 23.041-69.646 70.892-70.091 112.027-1.042 349.193-14.511 455.264-10.36 34.205 1.339 62.292 34.624 51.881 63.068C596.826-57.262 923.151 9.427 923.151 9.427s83.359 177.85 82.666 179.759c-.334.919-390.692 408.197-390.692 408.197z" transform="rotate(-145 914.887 215.665) scale(.5)" style="display:block" id="al"/><path fill="#FFF" d="M412.599 78.212c-6.132 3.04-7.257 9.111-7.45 10.036l-2.078 9.955c-.804 3.852 1.678 7.626 5.543 8.43l7.348 1.528c7.924 1.648 15.683-3.417 17.331-11.313.495-2.371 3.308-16.424 3.308-16.424s-16.193-6.083-24.002-2.212zm-14.702-3.734c3.902 5.915 3.593 9.268 3.279 11.761-.411 3.262-1.961 10.655-1.961 10.655-.863 4.124-4.939 6.767-9.102 5.904l-7.271-1.508c-8.179-1.696-13.434-9.638-11.738-17.74.661-3.158 3.897-16.189 3.897-16.189s19.186 1.492 22.896 7.117z" transform="rotate(-5 7434.471 -10806.925)" style="display:block" id="aj"/><path fill="#FFF" d="M412.599 78.212c-6.132 3.04-7.257 9.111-7.45 10.036l-2.078 9.955c-.804 3.852 1.678 7.626 5.543 8.43l7.348 1.528c7.924 1.648 15.683-3.417 17.331-11.313.495-2.371 3.308-16.424 3.308-16.424s-16.193-6.083-24.002-2.212zm-14.702-3.734c3.902 5.915 3.593 9.268 3.279 11.761-.411 3.262-1.961 10.655-1.961 10.655-.863 4.124-4.939 6.767-9.102 5.904l-7.271-1.508c-8.179-1.696-13.434-9.638-11.738-17.74.661-3.158 3.897-16.189 3.897-16.189s19.186 1.492 22.896 7.117z" transform="rotate(-5 7434.471 -10806.925)" style="display:block" id="ak"/><filter id="b" filterUnits="objectBoundingBox" x="0%" y="0%" width="100%" height="100%"><feComponentTransfer in="SourceGraphic"><feFuncA type="table" tableValues="1.0 0.0"/></feComponentTransfer></filter><filter id="f" filterUnits="objectBoundingBox" x="0%" y="0%" width="100%" height="100%"><feComponentTransfer in="SourceGraphic"><feFuncA type="table" tableValues="1.0 0.0"/></feComponentTransfer></filter><filter id="i" filterUnits="objectBoundingBox" x="0%" y="0%" width="100%" height="100%"><feComponentTransfer in="SourceGraphic"><feFuncA type="table" tableValues="1.0 0.0"/></feComponentTransfer></filter><filter id="m" filterUnits="objectBoundingBox" x="0%" y="0%" width="100%" height="100%"><feComponentTransfer in="SourceGraphic"><feFuncA type="table" tableValues="1.0 0.0"/></feComponentTransfer></filter><filter id="p" filterUnits="objectBoundingBox" x="0%" y="0%" width="100%" height="100%"><feComponentTransfer in="SourceGraphic"><feFuncA type="table" tableValues="1.0 0.0"/></feComponentTransfer></filter><filter id="t" filterUnits="objectBoundingBox" x="0%" y="0%" width="100%" height="100%"><feComponentTransfer in="SourceGraphic"><feFuncA type="table" tableValues="1.0 0.0"/></feComponentTransfer></filter><g style="display:block" id="g"><path fill="#FFF" d="M638.033-169.849c-41.207 112.587 498.002-704.754 437.397-537.737-11.827 32.594-744.654 15.526-794.265 19.972-84.82 7.601-1090.514 743.028-1179.146 746.325-15.917.593 94.439 209.272 90.759 178.065-14.53-123.236 483.127-306.895 467.747-485.528-1.182-13.726 402.119 68.144 410.47 55.978 11.633-16.946 32.039-29.524 59.893-29.783 112.027-1.042 349.193-14.511 455.264-10.36 34.205 1.339 62.291 34.624 51.881 63.068z" transform="rotate(-145 914.887 215.665) scale(.5)"/><path fill-opacity="0" stroke="#9DEEC7" stroke-width="6.5" d="M1230.584 803.67C1279.75 769.375 824.5 949.5 897.22 898.474c14.192-9.958 309.445 207.2 331.04 219.606 36.92 21.212 659.74 8.42 696.987 32.488 6.69 4.322 21.337-112.796 13.894-98.96-29.391 54.642-285.89-12.858-330.821 64.717-3.453 5.96-145.156-143.233-152.065-140.645-9.625 3.604-21.59 2.904-33.072-4.979-46.183-31.7-147.183-94.2-189.437-126.32-13.625-10.359-15.583-32.046-3.162-40.71z"/></g><g style="display:block" id="d"><path fill="#DB8D74" d="M521.5 303c-16.5 11-42 12.5-66 13.5s-53.834 22.53-51 52c2.5 26 27.5 43 54.5 43.5 30.012.556 61-2.5 100.5-24s36.5-55.5 23.5-77-45-19-61.5-8z" transform="rotate(-6 6207.043 -8631.536)"/><path fill-opacity="0" stroke="#3D3D3D" stroke-width="2" d="M1486.56 848.357c-15.26 12.664-40.464 16.822-64.228 20.325-23.764 3.503-51.184 28.034-45.285 57.046 5.204 25.596 31.844 39.89 58.748 37.565 29.906-2.584 60.405-8.863 97.441-34.374 37.036-25.51 30.499-59.011 15.323-79.034-15.177-20.024-46.74-14.193-62-1.528z"/></g><g style="display:block" id="n"><path fill="#FFF" d="M638.033-169.849c-41.207 112.587 498.002-704.754 437.397-537.737-11.827 32.594-744.654 15.526-794.265 19.972-84.82 7.601-1090.514 743.028-1179.146 746.325-15.917.593 94.439 209.272 90.759 178.065-14.53-123.236 483.127-306.895 467.747-485.528-1.182-13.726 402.119 68.144 410.47 55.978 11.633-16.946 32.039-29.524 59.893-29.783 112.027-1.042 349.193-14.511 455.264-10.36 34.205 1.339 62.291 34.624 51.881 63.068z" transform="rotate(-145 914.887 215.665) scale(.5)"/><path fill-opacity="0" stroke="#9DEEC7" stroke-width="6.5" d="M1230.584 803.67C1279.75 769.375 824.5 949.5 897.22 898.474c14.192-9.958 309.445 207.2 331.04 219.606 36.92 21.212 659.74 8.42 696.987 32.488 6.69 4.322 21.337-112.796 13.894-98.96-29.391 54.642-285.89-12.858-330.821 64.717-3.453 5.96-145.156-143.233-152.065-140.645-9.625 3.604-21.59 2.904-33.072-4.979-46.183-31.7-147.183-94.2-189.437-126.32-13.625-10.359-15.583-32.046-3.162-40.71z"/></g><g style="display:block" id="k"><path fill="#DB8D74" d="M521.5 303c-16.5 11-42 12.5-66 13.5s-53.834 22.53-51 52c2.5 26 27.5 43 54.5 43.5 30.012.556 61-2.5 100.5-24s36.5-55.5 23.5-77-45-19-61.5-8z" transform="translate(975 551.5)"/><path fill-opacity="0" stroke="#3D3D3D" stroke-width="2" d="M1496.5 854.5c-16.5 11-42 12.5-66 13.5s-53.834 22.53-51 52c2.5 26 27.5 43 54.5 43.5 30.012.556 61-2.5 100.5-24s36.5-55.5 23.5-77-45-19-61.5-8z"/></g><g style="display:block" id="u"><path fill="#FFF" d="M638.033-169.849c-41.207 112.587 498.002-704.754 437.397-537.737-11.827 32.594-744.654 15.526-794.265 19.972-84.82 7.601-1090.514 743.028-1179.146 746.325-15.917.593 94.439 209.272 90.759 178.065-14.53-123.236 483.127-306.895 467.747-485.528-1.182-13.726 402.119 68.144 410.47 55.978 11.633-16.946 32.039-29.524 59.893-29.783 112.027-1.042 349.193-14.511 455.264-10.36 34.205 1.339 62.291 34.624 51.881 63.068z" transform="rotate(-145 914.887 215.665) scale(.5)"/><path fill-opacity="0" stroke="#9DEEC7" stroke-width="6.5" d="M1230.584 803.67C1279.75 769.375 824.5 949.5 897.22 898.474c14.192-9.958 309.445 207.2 331.04 219.606 36.92 21.212 659.74 8.42 696.987 32.488 6.69 4.322 21.337-112.796 13.894-98.96-29.391 54.642-285.89-12.858-330.821 64.717-3.453 5.96-145.156-143.233-152.065-140.645-9.625 3.604-21.59 2.904-33.072-4.979-46.183-31.7-147.183-94.2-189.437-126.32-13.625-10.359-15.583-32.046-3.162-40.71z"/></g><g style="display:block" id="r"><path fill="#DB8D74" d="M521.5 303c-16.5 11-42 12.5-66 13.5s-53.834 22.53-51 52c2.5 26 27.5 43 54.5 43.5 30.012.556 61-2.5 100.5-24s36.5-55.5 23.5-77-45-19-61.5-8z" transform="translate(975 551.5)"/><path fill-opacity="0" stroke="#3D3D3D" stroke-width="2" d="M1496.5 854.5c-16.5 11-42 12.5-66 13.5s-53.834 22.53-51 52c2.5 26 27.5 43 54.5 43.5 30.012.556 61-2.5 100.5-24s36.5-55.5 23.5-77-45-19-61.5-8z"/></g><linearGradient id="bj" spreadMethod="pad" gradientUnits="userSpaceOnUse" x1="475" y1="-110.003" x2="566.067" y2="-38.825"><stop offset="0%" stop-color="#FFA75F"/><stop offset="50%" stop-color="#FFB78B"/><stop offset="100%" stop-color="#FFC7B8"/></linearGradient><linearGradient id="bf" spreadMethod="pad" gradientUnits="userSpaceOnUse" x1="475" y1="-110.003" x2="566.067" y2="-38.825"><stop offset="0%" stop-color="#FFA75F"/><stop offset="50%" stop-color="#FFB78B"/><stop offset="100%" stop-color="#FFC7B8"/></linearGradient><linearGradient id="bb" spreadMethod="pad" gradientUnits="userSpaceOnUse" x1="475" y1="-110.003" x2="566.067" y2="-38.825"><stop offset="0%" stop-color="#FFA75F"/><stop offset="50%" stop-color="#FFB78B"/><stop offset="100%" stop-color="#FFC7B8"/></linearGradient></defs><g clip-path="url(#am)"><g clip-path="url(#au)" style="display:block" transform="matrix(-1 0 0 1 1916 -23.5)"><g style="display:block"><path fill="#58CC02" d="M1230.485 803.743c49.265-34.368 132.015-92.243 204.643-143.202 2.002-1.405 3.906-2.71 5.76-3.878 4.8-3.029 9.266-5.15 14.243-5.77 6.718-.835 14.365 1.067 25.027 7.176 36.967 21.181 70.905 41.494 108.168 65.572 4.658 3.01 6.174 7.172 6.757 10.689.983 5.927-.897 11.436-3.946 17.277-3.012 5.768-6.232 11.558-9.996 18.377C1550.5 825.5 1502 911.25 1472.57 961.824c-4.698 8.072-10.57 15.176-16.747 21.73-4.887 5.184-14.269 14.656-20.551 18.658-11.597 7.387-24.773 4.218-34.089-2.01C1359.001 972 1261.5 906.5 1219.247 875.38c-8.648-6.368-11.976-19.711-10.496-25.73 2.25-9.15 4.91-17.376 8.08-24.263 3.17-6.887 7.327-17.231 13.654-21.644z"/><path stroke="#58CC02" stroke-width="6.5" d="M1230.485 803.743c49.265-34.368 132.015-92.243 204.643-143.202 2.002-1.405 3.906-2.71 5.76-3.878 4.8-3.029 9.266-5.15 14.243-5.77 6.718-.835 14.365 1.067 25.027 7.176 36.967 21.181 70.905 41.494 108.168 65.572 4.658 3.01 6.174 7.172 6.757 10.689.983 5.927-.897 11.436-3.946 17.277-3.012 5.768-6.232 11.558-9.996 18.377C1550.5 825.5 1502 911.25 1472.57 961.824c-4.698 8.072-10.57 15.176-16.747 21.73-4.887 5.184-14.269 14.656-20.551 18.658-11.597 7.387-24.773 4.218-34.089-2.01C1359.001 972 1261.5 906.5 1219.247 875.38c-8.648-6.368-11.976-19.711-10.496-25.73 2.25-9.15 4.91-17.376 8.08-24.263 3.17-6.887 7.327-17.231 13.654-21.644z" fill="none"/><path fill="#FFF" d="M1230.584 803.67c49.166-34.295 131.916-92.17 204.637-143.195 14.192-9.958 23.444-14.802 45.039-2.395 36.92 21.212 70.74 41.42 107.987 65.488 6.69 4.322 10.337 14.203 2.894 28.04-29.391 54.642-73.89 133.142-118.821 210.717-8.262 14.263-29.411 21.917-49.137 8.376-46.183-31.7-147.183-94.2-189.437-126.32-13.625-10.359-15.583-32.046-3.162-40.71z"/><path stroke="#9DEEC7" stroke-width="6.5" d="M1230.584 803.67c49.166-34.295 131.916-92.17 204.637-143.195 14.192-9.958 23.444-14.802 45.039-2.395 36.92 21.212 70.74 41.42 107.987 65.488 6.69 4.322 10.337 14.203 2.894 28.04-29.391 54.642-73.89 133.142-118.821 210.717-8.262 14.263-29.411 21.917-49.137 8.376-46.183-31.7-147.183-94.2-189.437-126.32-13.625-10.359-15.583-32.046-3.162-40.71z" fill="none"/></g><g mask="url(#av)" style="display:block"><g clip-path="url(#aw)"><path fill="#A175F9" d="M313.521 147.266a4.996 4.996 0 0 1-2.476-6.589l35.505-79.229c12.52-26.807 39.038-43.041 67.437-37.268 27.928 5.677 46.166 30.165 46.598 59.638l2.639 84.3a5.001 5.001 0 0 1-4.581 5.139c-10.243.872-36.172 2.236-68.29-2.346-33.359-4.759-65.34-18.373-76.832-23.645z" transform="rotate(-9 4517.733 -5773.283)" style="display:block"/><g style="display:block"><path fill="#A570FF" d="M1336.283 765.013c2.96-6.884 13.316-10.04 20.2-7.08 6.885 2.96 13.093 13.872 10.133 20.756 0 0-6.505 18.726-12.421 30.016-5.204 9.93-12.828 21.278-12.828 21.278-6.055 7.409-10.942 10.065-17.826 7.105-6.885-2.96-10.066-10.942-7.105-17.827 0 0 5.961-13.472 9.908-24.259 3.947-10.787 9.94-29.99 9.94-29.99z"/><path fill="#593F86" d="M1336.283 765.013s7.881-30.514 10.06-56.936l36.458 5.677c-.345 25.72-15.521 63.356-15.521 63.356-3.011 1.553-13.402 4.31-20.367 1.315-6.395-2.75-9.741-10.373-10.63-13.412z"/><path fill="#FFC6B7" d="M1387.696 757.317c-.074 5.545-4.63 9.98-10.176 9.906-5.546-.074-9.982-4.63-9.908-10.176.074-5.545 4.631-9.982 10.177-9.908 5.545.074 9.981 4.632 9.907 10.178z"/><path fill="#593F86" d="m1360.337 703.674-47.554 29.539c-11.219 6.97-6.5 24.263 6.704 24.567l79.754 1.838c13.244.305 18.728-16.837 7.766-24.275l-46.67-31.669z"/><path fill="#FFC6B7" d="M1358.875 735.058c-7.063-4.559-10.344-7.956-15.106-8.02-4.674-.063-8.635 3.083-9.812 7.392 5.115.138 17.568.443 24.918.628z"/></g><path fill="#FFC6B7" d="m452.468 91.525 4.291.879c6.08 1.246 9.997 7.025 8.751 12.908-1.246 5.883-7.186 9.642-13.266 8.396l-4.291-.879c-6.08-1.246-9.998-7.025-8.751-12.908 1.247-5.883 7.186-9.642 13.266-8.396zm-35.749-59.211c24.256 5.058 40.846 27.56 38.541 52.277l-5.116 39.92c-2.524 13.181-12.859 21.445-25.152 20.885-12.066-.55-19.554-1.305-35.019-2.624-15.465-1.319-26.56-9.131-26.56-9.131-12.999-2.711-21.339-15.466-18.628-28.489a24.11 24.11 0 0 1 .936-3.302l13.566-37.444c8.519-23.515 32.991-37.189 57.432-32.092z" transform="rotate(-5 7408.368 -10691.223)" style="display:block"/><path fill="#FFF" d="M412.599 78.212c-6.132 3.04-7.257 9.111-7.45 10.036l-2.078 9.955c-.804 3.852 1.678 7.626 5.543 8.43l7.348 1.528c7.924 1.648 15.683-3.417 17.331-11.313.495-2.371 3.308-16.424 3.308-16.424s-16.193-6.083-24.002-2.212zm-14.702-3.734c3.902 5.915 3.593 9.268 3.279 11.761-.411 3.262-1.961 10.655-1.961 10.655-.863 4.124-4.939 6.767-9.102 5.904l-7.271-1.508c-8.179-1.696-13.434-9.638-11.738-17.74.661-3.158 3.897-16.189 3.897-16.189s19.186 1.492 22.896 7.117z" transform="rotate(-5 7434.013 -10806.563)" style="display:block"/><g mask="url(#ax)" style="display:block"><path fill="#3D3D3D" d="M1402.51 660.974c-.503 3.83-3.658 6.305-7.22 5.87-3.563-.436-6.06-3.779-5.682-7.445.377-3.666 1.04-9.9 1.04-9.9l13.08.94s-.715 6.705-1.218 10.535zm-29.193-2.102c-.368 4.329-3.658 6.305-7.22 5.87-3.563-.435-6.022-4.01-5.683-7.444.348-3.52.68-8.404.68-8.404l12.644 1.044s-.054 4.606-.421 8.934z"/></g><g mask="url(#ay)" style="display:block"><path fill="#A570FF" d="m1415.747 645.722-1.12 16.504-71.252-6.752 2.16-17.81 70.212 8.058z"/></g><path fill="#FFC6B7" d="M392.238 134.582a27.84 27.84 0 0 1 .557-7.168c3.172-15.155 18.137-24.871 33.426-21.7 4.08.846 7.06 2.538 9.233 4.487 5.034 4.515-43.121 26.188-43.216 24.381z" transform="rotate(-5 7434.013 -10806.563)" style="display:block"/><path fill="#EE9583" d="M404.942 119.172c5.947-7.414 11.462-9.776 16.117-6.04.85.682.993 1.938.319 2.804a1.942 1.942 0 0 1-2.757.333c-2.469-1.981-5.872-.523-10.64 5.42a1.942 1.942 0 0 1-2.762.291 2.018 2.018 0 0 1-.277-2.808zm-7.456-4.456c3.258.67 6.439-1.349 7.106-4.511.667-3.162-3.654-11.853-3.654-11.853l-.905.784c-2.011 1.78-6.716 6.163-7.239 8.641-.667 3.162 1.434 6.268 4.692 6.939z" transform="rotate(-5 7434.013 -10806.563)" style="display:block"/><path fill="#A570FF" d="M317.487 151.331c14.939-40.032 33.041-127.467 89.887-122.518.776.068 1.386.496 1.846 1.244 6.887 11.194-19.7 94.117-24.231 115.511-.547 2.583-2.975 3.862-5.614 3.912-18.096.341-47.652 2.163-61.888 1.851zM428.486 34.052c17.261 6.726 29.208 23.333 28.949 47.181l-26.563-5.556c-19.329-4.022-23.631-20.569-23.492-40.632l-4.756-6.01c8.329-.365 18.488 2.143 25.862 5.017z" transform="rotate(-5 7408.368 -10691.223)" style="display:block"/></g></g><g mask="url(#az)" style="display:block"><g clip-path="url(#aA)"><path fill="#E6A000" d="M0-59.292c32.723 0 59.292 26.569 59.292 59.292S32.723 59.292 0 59.292-59.292 32.723-59.292 0-32.723-59.292 0-59.292z" transform="matrix(.38973 .12663 -.0618 .19021 1493.225 685.26)" style="display:block"/><g style="display:block"><path fill="#FFC700" d="M1479.054 669.314c9.753-2.106 24.531 2.008 33.007 9.188 8.475 7.18 7.44 14.708-2.315 16.814-9.753 2.106-24.531-2.007-33.007-9.188-8.475-7.18-7.439-14.708 2.315-16.814z"/><path fill="#FFE700" d="M1506.04 676.633a28.068 28.068 0 0 1 3.133 2.286c1.821 1.542 3.122 3.104 3.912 4.604.165.313-.197.356-.652.456-4.6 1.008-22.786 4.933-25.267 5.457-.34.072-.928.213-1.803-.188-2.292-1.052-4.25-2.435-5.976-3.898a19.501 19.501 0 0 1-2.538-2.554c-.142-.175-.415-.45.61-.672 4.43-.957 20.728-4.438 26.91-5.773.817-.177 1.297.045 1.672.282zm-24.7-5.462c5.383-1.163 12.583-.078 18.92 2.509.45.184 1.581.769.25 1.082-1.333.313-21.493 4.574-23.888 5.091-1.403.303-1.725-.438-1.795-.671-1.11-3.721 1.123-6.847 6.512-8.011z"/></g><path fill="#E6A000" d="M0-59.292c32.723 0 59.292 26.569 59.292 59.292S32.723 59.292 0 59.292-59.292 32.723-59.292 0-32.723-59.292 0-59.292z" transform="matrix(.4813 .24524 -.13166 .2584 1514.025 734.632)" style="display:block"/><g style="display:block"><path fill="#FFC700" d="M1499.117 709.767c13.434-1.32 31.865 7.007 41.167 18.597 9.302 11.59 5.953 22.057-7.48 23.377-13.434 1.32-31.865-7.007-41.167-18.597-9.302-11.59-5.953-22.057 7.48-23.377z"/><path fill="#FFE700" d="M1532.827 724.7a34.675 34.675 0 0 1 3.535 3.763c1.998 2.49 3.304 4.919 3.953 7.173.136.47-.354.47-.98.534-6.34.643-31.386 3.102-34.8 3.422-.468.043-1.283.143-2.332-.573-2.75-1.876-4.97-4.164-6.865-6.525-1.101-1.373-1.992-2.727-2.679-4.043-.142-.271-.43-.707.982-.846 6.102-.6 28.537-2.752 37.053-3.588 1.125-.111 1.7.283 2.133.682zm-31.18-11.92c7.415-.728 16.636 2.03 24.322 6.762.546.337 1.887 1.356.046 1.572-1.841.217-29.584 2.815-32.882 3.14-1.932.19-2.162-.914-2.193-1.255-.487-5.449 3.284-9.489 10.706-10.218z"/></g><path fill="#E6A000" d="M0-59.292c32.723 0 59.292 26.569 59.292 59.292S32.723 59.292 0 59.292-59.292 32.723-59.292 0-32.723-59.292 0-59.292z" transform="matrix(.6486 .38971 -.22476 .37406 1500.135 794.898)" style="display:block"/><g style="display:block"><path fill="#FFC700" d="M1482.475 757.503c19.29-1.18 44.282 12.171 55.821 29.82 11.54 17.65 5.256 32.914-14.034 34.095-19.29 1.18-44.282-12.171-55.821-29.82-11.54-17.65-5.256-32.914 14.034-34.095z"/><path fill="#FFE700" d="M1528.227 781.484a46.427 46.427 0 0 1 4.478 5.761c2.48 3.791 3.983 7.453 4.578 10.82.125.703-.572.674-1.472.732-9.107.587-45.072 2.785-49.973 3.061-.67.038-1.843.139-3.23-.98-3.636-2.926-6.46-6.434-8.81-10.029-1.367-2.09-2.437-4.14-3.222-6.123-.162-.409-.509-1.069 1.52-1.193 8.761-.536 40.97-2.43 53.198-3.18 1.616-.098 2.376.517 2.933 1.131zm-42.595-19.386c10.65-.651 23.358 3.948 33.597 11.378.727.528 2.484 2.11-.165 2.324-2.648.214-42.467 2.464-47.203 2.754-2.775.17-2.942-1.473-2.935-1.979.099-8.074 6.049-13.825 16.706-14.477z"/></g><path fill="#E6A000" d="M0-59.292c32.723 0 59.292 26.569 59.292 59.292S32.723 59.292 0 59.292-59.292 32.723-59.292 0-32.723-59.292 0-59.292z" transform="matrix(.68536 .4799 -.32116 .45866 1420.606 831.336)" style="display:block"/><g style="display:block"><path fill="#FFC700" d="M1406.454 784.874c22.482-1.404 49.164 15.042 59.597 36.735 10.432 21.692.663 40.415-21.819 41.82-22.482 1.404-49.164-15.043-59.597-36.735-10.432-21.692-.663-40.416 21.819-41.82z"/><path fill="#FFE700" d="M1455.376 814.418a47.284 47.284 0 0 1 4.228 7.082c2.24 4.66 3.377 9.157 3.511 13.292.028.863-.772.826-1.822.895-10.618.7-52.534 3.315-58.242 3.643-.78.044-2.152.165-3.572-1.21-3.72-3.602-6.406-7.914-8.531-12.332-1.236-2.57-2.135-5.088-2.716-7.525-.12-.502-.412-1.313 1.952-1.46 10.21-.638 47.738-2.89 61.989-3.78 1.883-.118 2.66.639 3.203 1.395zm-46.03-23.896c12.412-.776 26.34 4.9 36.949 14.044.754.65 2.524 2.596-.572 2.852-3.095.257-49.473 2.927-54.992 3.272-3.235.202-3.157-1.815-3.067-2.436 1.442-9.91 9.261-16.956 21.683-17.732z"/></g><path fill="#E6A000" d="M0-59.292c32.723 0 59.292 26.569 59.292 59.292S32.723 59.292 0 59.292-59.292 32.723-59.292 0-32.723-59.292 0-59.292z" transform="matrix(.81915 .57358 -.43018 .61436 1303.57 843.462)" style="display:block"/><g style="display:block"><path fill="#FFC700" d="M1289.189 784.783c28.033-3.338 60.076 16.103 71.57 43.422 11.493 27.32-1.915 52.173-29.948 55.511-28.033 3.339-60.076-16.102-71.57-43.422-11.493-27.32 1.915-52.173 29.948-55.511z"/><path fill="#FFE700" d="M1347.981 819.638a53.725 53.725 0 0 1 4.773 8.863c2.47 5.869 3.577 11.603 3.463 16.936-.023 1.113-1.016 1.12-2.325 1.28-13.243 1.624-65.508 7.844-72.623 8.654-.973.11-2.685.36-4.357-1.32-4.378-4.402-7.424-9.79-9.765-15.355-1.362-3.236-2.308-6.43-2.865-9.538-.115-.64-.423-1.669 2.524-2.02 12.733-1.516 59.52-6.969 77.29-9.085 2.347-.28 3.261.645 3.885 1.585zm-55.58-27.754c15.475-1.843 32.399 4.545 44.963 15.641.892.788 2.96 3.183-.904 3.724-3.864.542-61.677 7.135-68.56 7.954-4.032.48-3.8-2.13-3.645-2.939 2.463-12.903 12.658-22.536 28.146-24.38z"/></g></g></g><path stroke="#9DEEC7" stroke-width="13" d="M396.003 355.089c-84.82 7.601-163.41 13.29-252.041 16.588-15.917.592-33.228-11.412-36.908-42.619-14.53-123.235-31.678-302.891-47.058-481.524-2.828-32.845 23.041-69.646 70.892-70.091 112.027-1.042 349.193-14.511 455.264-10.36" fill="none" transform="rotate(-145 914.887 215.665) scale(.5)" style="display:block"/></g><g clip-path="url(#aQ)" style="display:block" transform="matrix(-1 0 0 1 1976 -43.5)"><g style="display:block"><path stroke-linecap="round" stroke-miterlimit="10" stroke="#CC348D" stroke-width="23" d="M1748.014 389.58c-2.051-15.022 29.052-17.046 47.698-.672" fill="none"/><path fill="#C6775C" d="M1763.037 387.53c1.133 8.297-4.675 15.94-12.972 17.073-8.297 1.133-15.94-4.674-17.074-12.97-1.133-8.298 4.674-15.943 12.971-17.076 8.297-1.133 15.943 4.676 17.075 12.973z"/><path fill="#5EC6FF" d="M1784.453 417.694c-2.546 9.56-17.518 13.872-33.441 9.631-15.923-4.24-26.767-15.43-24.22-24.99 2.545-9.56 17.21-26.646 36.597-21.482 19.529 5.2 23.61 27.28 21.064 36.84z"/><path fill="#0084C2" d="M1784.453 417.694c-2.546 9.56-17.518 13.872-33.441 9.631-15.923-4.24-26.767-15.43-24.22-24.99 2.545-9.56 17.517-13.872 33.44-9.631 15.924 4.24 26.767 15.43 24.221 24.99z"/><path fill="#FFCC76" d="M1760.233 392.704c-9.033-2.407-17.757-2.057-24.082.439.38 5.729-2.095 9.143-2.805 10.636-.052.113-.113.22-.163.337-2.547 6.022.27 12.969 6.293 15.516 4.363 1.845 9.203.864 12.512-2.1a13.216 13.216 0 0 0 5.866 4.856c6.757 2.858 14.552-.303 17.41-7.06 1.388-3.284 4.049-8.724 5.238-10.752-4.302-5.107-11.514-9.54-20.27-11.872z"/></g><g mask="url(#aR)" style="display:block"><path stroke-linecap="round" stroke-miterlimit="10" stroke="#FFCC76" stroke-width="4.148" d="M1802.068 313.553c-15.089 5.722-36.071 28.052-27.078 33.048 8.993 4.995 19.675-24.841 43.604-17.578m-19.2 8.19c-11.692 5.834-20.21 19.675-32.284 39.693m34.068-33.788c-5.256 4.95-7.994 7.455-14.407 16.838-6.413 9.383-14.412 18.42-18.255 30.608" fill="none"/></g><path fill="#0084C2" d="M732.862-124.382c4.759-25.473 29.266-42.264 54.739-37.505s42.265 29.265 37.506 54.738-29.266 42.265-54.739 37.506-42.265-29.266-37.506-54.739z" transform="rotate(3.888 -7349.167 15333.87)" style="display:block"/><g mask="url(#aS)" style="display:block"><path fill="#006AAD" d="M1851.366 507.392c-17.191-1.272-34.251-3.625-49.684-19.933l-6.964.53c18.515 20.872 39.21 23.638 50.713 23.917a47.202 47.202 0 0 0 5.935-4.514z"/><path fill="#C6775C" d="M1789.196 416.4c4.257-16.068 20.686-25.684 36.78-21.532 16.167 4.173 25.892 20.661 21.72 36.83l-9.104 35.28c-1.037 4.015-3.868 7.332-7.688 8.945-15.731 6.642-28.065 11.241-32.722 12.94a3.209 3.209 0 0 1-3.486-.842c-8.264-9.073-13.247-19.526-15.483-24.95-.985-2.388-1.05-5.027-.389-7.526l10.372-39.146z"/><path stroke-linecap="round" stroke="#FFF" stroke-width="20.813" d="m1788.736 458.245 2.504-8.45m20.394 14.894 1.59-6.168" fill="none"/><path stroke-linecap="round" stroke="#3D3D3D" stroke-width="9.4" d="M1809.95 462.075s-1.081 2.508-1.253 5.034m-18.798-12.022s-.477 3.287-1.838 5.564" fill="none"/><path fill="#FFF" d="M1784.47 458.56c1.726.856 2.6 3.461 1.618 5.147-4.06 7.309-9.224-7.7-1.618-5.146zm19.537 7.454c2.05.564 3.408 2.534 2.611 4.72-2.606 4.707-6.374-4.082-2.61-4.72z"/><path fill="#C6775C" d="M1791.924 447.257a6.295 6.295 0 1 1 12.138 3.33 6.295 6.295 0 0 1-12.138-3.33z"/></g><path stroke-linecap="round" stroke="#3D3D3D" stroke-width="46.998" d="M806.508-160.321c-17.756 5.031-37.78.251-40.643-7.859" fill="none" transform="translate(1030.074 586.893)" style="display:block"/><path fill="#FFF" d="m756.151-159.828.792-1.802a5.805 5.805 0 0 1 10.63 4.672l-.792 1.802a5.805 5.805 0 0 1-10.63-4.672z" transform="translate(1030.199 587.018)" style="display:block"/><path fill="#CC348D" d="M745.232-224.137c-.304-28.44 22.505-51.741 50.945-52.045 28.44-.304 51.741 22.506 52.045 50.946.304 28.44-22.505 51.74-50.945 52.044-28.44.304-51.741-22.505-52.045-50.945z" transform="rotate(-3.888 9985.941 -15062.123)" style="display:block"/><path stroke-linecap="round" stroke-linejoin="round" stroke="#CC348D" stroke-width="23" d="M828.223-200.028s8.426 5.333 7.019 10.364c-3.392 12.125-30.207 15.5-30.207 15.5" fill="none" transform="rotate(-3.888 9985.941 -15062.123)" style="display:block"/><g mask="url(#aT)" style="display:block"><path fill="#0084C2" d="M1758.194 355.13c1.89-24.876 17.158-49.963 58.862-53.115 41.704-3.153 81.01 13.872 74.3 39.288-5.226 19.791-25.638 35.353-72.215 34.62-44.43-.7-61.147-18.168-60.947-20.792z"/><path stroke="#00448E" stroke-width="11" d="M1758.194 355.13c1.89-24.876 17.158-49.963 58.862-53.115 41.704-3.153 81.01 13.872 74.3 39.288-5.226 19.791-25.638 35.353-72.215 34.62-44.43-.7-61.147-18.168-60.947-20.792z" fill="none"/></g><g style="display:block"><path stroke-linecap="round" stroke-linejoin="round" stroke="#0084C2" stroke-width="20" d="M1816.99 325.778s-32.489-16.643-41.65-26.587c4.006-11.515 20.384-27.783 29.397-38.136" fill="none"/><path stroke-linecap="round" stroke-linejoin="round" stroke="#CC348D" stroke-width="14" d="M1825.82 253.663c-1.257-5.872-4.736-12.885-8.12-16.364" fill="none"/></g><g style="display:block"><path stroke-linecap="round" stroke-linejoin="round" stroke="#0084C2" stroke-width="20" d="M1817.237 325.739s-55.591 5.195-97.68-18.575" fill="none"/><path stroke-linecap="round" stroke-linejoin="round" stroke="#CC348D" stroke-width="14" d="M1703.152 290.157c-2.376 2.386-8.151 9.236-11.358 14.71" fill="none"/></g><g style="display:block"><path stroke-linecap="round" stroke-linejoin="round" stroke="#DAAF83" stroke-width="5" d="m1865.438 431.133-58.863-10.889m53.662 20.006-54.135-17.334" fill="none"/><path stroke-linecap="round" stroke-linejoin="round" stroke="#C6775C" stroke-width="9" d="m1833.413 425.73-10.447 5.49" fill="none"/><path fill="#C6775C" d="m1834.535 430.286 5.233-2.836a8.535 8.535 0 0 0 3.438-11.57l-2.51-4.63a8.534 8.534 0 0 0-11.57-3.437l-5.232 2.836a8.534 8.534 0 0 0-3.438 11.57l2.509 4.629a8.536 8.536 0 0 0 11.57 3.438z"/></g></g><g clip-path="url(#bg)" style="display:block" transform="matrix(-1 0 0 1 1916 -23.5)"><g style="display:block"><path stroke-linecap="round" stroke-linejoin="round" stroke="#FFC6B7" stroke-width="12" d="M1452.982 581.524c3.744-6.584 2.064-13.102-.626-19.586m-12.35 5.495c6.409 3.064 10.84 8.425 12.46 14.159m-17.582-2.438c9.672 2.182 14.018 9.791 16.024 13.302m-6.249 7.062s8.66-5.5 18.924-6.749" fill="none"/><path stroke-linecap="round" stroke-linejoin="round" stroke="#FFC6B7" stroke-width="36" d="M1484.515 582.806c-10.312-.994-15.175-1.272-24.2-.937" fill="none"/><path stroke-linecap="round" stroke-linejoin="round" stroke="#33E3FF" stroke-width="36" d="M1502.528 585.175c-8.738-2.074-20.16-2.764-29.186-3.07" fill="none"/></g><path fill="#33E3FF" d="M628.595-118.788c6.021-30.99-36.974-62.38-62.838-44.052-.911.344-38.03 27.122-38.03 27.122-12.553 9.021 86.068 94.244 90.934 68.632 0 0 9.612-50.938 9.934-51.702z" transform="rotate(-2.115 16606.105 -26316.443)" style="display:block"/><path stroke-linecap="round" stroke="#393939" stroke-width="27" d="m683.25 34.5 4.25 3.5" fill="none" transform="rotate(-2.816 12154.003 -19384.053)" style="display:block"/><path stroke-linecap="round" stroke-linejoin="round" stroke="#393939" stroke-width="23" d="m613.75 94-8.25 3.75" fill="none" transform="rotate(-4.839 7520.983 -11114.256)" style="display:block"/><path fill="#FFC7B8" d="M552.811-154.957c-14.873-8.982-34.962-11.237-52.179-1.891l-28.256 15.339a51.11 51.11 0 0 0-25.616 34.316l-7.98 37.63C434.57-49.714 440-30 458.986-17.428 477.972-4.856 510.5 12 528.501 43.852c6.897 12.204 42.974 11.603 54.934 7.15l38.691-9.376A38.335 38.335 0 0 0 651.93 8.839l6.319-51.72c-.568-6.318-6.973-19.296-11.519-26.102C621-107.5 590-132.5 552.811-154.957z" transform="rotate(-2.255 15639.223 -24666.89)" style="display:block"/><path fill="#EE9583" d="M523.147-6.062c2.236 3.145 5.699 3.51 8.324 1.644 2.625-1.866 3.418-5.255 1.182-8.401-2.236-3.145-9.483-4.798-10.202-4.287-.718.51-1.54 7.899.696 11.044z" transform="rotate(-2.255 15627.199 -24663.07)" style="display:block"/><g style="display:block"><path fill="#FFF" d="M1485.444 546.848c-7.559-5.177-19.8-4.497-25.995 1.445-5.118 4.908-4.278 11.759 1.965 16.035l9.356 6.41c7.559 5.178 19.8 4.497 25.996-1.446 5.118-4.908 4.278-11.758-1.965-16.035l-9.357-6.409zm32.052-21.261c-7.529-5.158-18.852-3.854-25.063 2.886-5.993 6.505-4.98 15.664 2.287 20.642l8.56 5.863c7.528 5.158 18.854 3.852 25.063-2.886 5.995-6.506 4.98-15.664-2.288-20.642l-8.559-5.863z"/><path fill="#FFC7B8" d="M1531.991 535.927c-5.592 4.103-12.45 16.614-14.56 25.81l17.475-12.824c1.359-6.038 2.677-17.09-2.915-12.986z"/><path fill="#EE9583" d="M1526.906 554.45a2.223 2.223 0 0 0-1.958 2.457c.255 2.25.112 4.43-.654 6.464-.757 2.01-2.178 4.013-4.693 5.85a2.219 2.219 0 0 0-.484 3.101 2.22 2.22 0 0 0 3.103.486c3.156-2.305 5.141-4.987 6.23-7.87 1.078-2.862 1.221-5.788.912-8.53a2.221 2.221 0 0 0-2.456-1.958z"/><path fill="#4B4B4B" d="M1502.544 537.358a4.246 4.246 0 0 0 1.856 3.328c1.922 1.317 4.524.862 5.809-1.014a4.07 4.07 0 0 0 .336-.591l4.738 3.099c3.395 2.22 3.915 6.43 1.165 9.416-2.763 2.998-7.782 3.623-11.193 1.392l-5.763-3.769c-3.395-2.22-3.916-6.43-1.166-9.415 1.12-1.217 2.612-2.042 4.218-2.446zm-16.511 14.667c.164.096.323.199.48.305l4.955 3.393c3.657 2.505 4.19 6.508 1.253 9.415-2.555 2.529-7.719 2.844-10.903.665l-7.119-4.877c-3.036-2.078-3.479-5.4-1.04-7.812 1.085-1.075 2.568-1.81 4.197-2.192a4.503 4.503 0 0 0 1.891 2.81c1.98 1.355 4.6.973 5.85-.854.185-.27.33-.556.436-.853z"/></g><g mask="url(#bh)" style="display:block"><g clip-path="url(#bi)" transform="rotate(3.807 1525.926 553.59) scale(1.00759)"><g style="display:block"><path fill="#FFC7B8" d="M1531.072 472.95c5.547 1.538 10.722-2.436 11.558-8.872.835-6.437-2.985-12.9-8.532-14.438-5.547-1.538-10.722 2.436-11.557 8.872-.836 6.437 2.985 12.9 8.531 14.438z"/><path fill="#0084C2" d="M1476.51 610.578s56.633 59.035 75.738 52.288l84.852-53.299c15.31-5.119 16.846-112.947 8.034-122.726l-46.156-33.193-.192-.139-6.05-4.349-7.1 111.687-109.126 49.731z"/><path fill="#33E3FF" d="M1599.227 458.011c-6.193-5.901-32.26-23.432-32.26-23.432a89.37 89.37 0 0 1 2.122 5.235c15.96 43.123 4.178 106.142 2.463 109.162-15.069 26.531-97.039 53.239-102.455 51.97l17.197 15.416c27.382 2.193 90.182-24.41 102.765-40.754 10.975-14.252 13.347-94.227 10.168-117.597z"/></g><path fill="url(#bj)" d="M542.287-73.808a20.443 20.443 0 0 0-21.744-1.686l-66.346 34.981c-4.69 2.473-5.503 8.833-1.52 12.333 4.619 4.057 18.803 15.086 20.93 16.441 2.539 1.618 3.641 4.492 3.329 7.164L455.999 7.558C439.513-4.27 412.084-46.23 416.293-66.078c0 0 3.246-69.461 16.083-76.429 0 0 91.517-46.369 107.436-34.95l29.674 16.915 1.147.654-.456 92.437a8.424 8.424 0 0 1-7.201 8.168c-.631.092-20.689-14.525-20.689-14.525z" transform="rotate(-6.1 6395.181 -8836.617)" style="display:block"/></g></g><path fill="#FF9500" d="M470.593-93.933c13.135-.06 20.705-10.756 20.644-23.907-.06-13.15-7.729-23.775-20.864-23.714-13.135.061-21.916 10.762-21.855 23.912.06 13.151 8.94 23.77 22.075 23.71zm-6.876 34.74c14.904-.113 26.893-12.318 26.776-27.258-.118-14.941-12.296-26.963-27.2-26.848-14.905.114-26.894 12.318-26.777 27.258.118 14.941 12.296 26.962 27.2 26.848z" transform="rotate(33.297 -12.182 1825.14)" style="display:block"/><path fill="#33E3FF" d="M637.81-65.136C633.75-56 626.831-54.6 622.786-55.983c-5.465-1.15-9.63-7.729-9.02-16.257 1.234-17.26 7.984-33.01 13.266-43.535 4.773-9.512 15.718-11.975 22.54-8.794 6.779 3.161 12.82 11.1 7.698 20.625-6.02 11.194-15.4 29.672-19.46 38.808z" transform="rotate(-2.115 16619.116 -26317.034)" style="display:block"/><g style="display:block"><path fill="#FFC6B7" d="M1639.402 451.712c-5.005-8.798-14.95-11.825-25.229-6.258-9.058 4.906-13.17 15.448-7.688 24.694 5.002 8.436 15.007 11.782 24.9 5.999 10.41-6.085 13.022-15.637 8.017-24.435z"/><path stroke-linecap="round" stroke="#EE9583" stroke-width="3.796" d="M1620.53 455.05c3.297 1.658 6.278 5.612 5.946 8.265" fill="none"/><path stroke-linecap="round" stroke-linejoin="round" stroke="#FFC6B7" stroke-width="12" d="M1615.546 450.078c.44-4.344-.76-7.86-2.216-12.034m17.18-7.194c-4.475 4.949-6.25 12.004-6.45 15.721m18.833-9.074c-3.72 2.646-10.562 10.434-11.19 16.64m16.789-3.325c-4.891.962-10.18 7.22-12.63 12.083" fill="none"/></g></g><g clip-path="url(#bq)" style="display:block" transform="matrix(-1 0 0 1 1976 -43.5)"><path fill="#58CC02" d="M303.202-41.464c15.252 94.999-16.572 140.035-80.655 155.537-84.448 20.428-144.155-35.09-168.05-85.71C36.399-9.976 30.802-60.821 30.83-85.003c-1.071-43.269 10.52-88.174 49.084-104.521 17.56-7.444 35.653-9.198 49.366-3.601 21.253 8.674 29.788 14.085 37.603 17.922 4.284 2.104 127.495 78.776 136.319 133.739zm15-4c15.252 94.999-31.572 144.035-95.655 159.537-84.448 20.428-134.794-43.146-151.05-96.71C16-165.5 159.067-179.04 166.883-175.203a21.628 21.628 0 0 0 13.832 1.799c13.828-2.814 30.07-12.725 53.437-22.382 29.756-12.279 71.107 4.01 71.646 43.268 0 0 3.58 52.091 12.404 107.054z" transform="rotate(-.993 35675.321 -59583.943)" style="display:block"/><path fill="#58CC02" d="M194.4-10.921c41.197 33.255 100.112 36.257 145.734 6.363 45.621-29.893 66.603-85.246 52.867-136.495-2.857-10.667-15.283-15.388-24.539-9.323L195.78-37.227c-9.256 6.065-9.954 19.384-1.38 26.306z" transform="rotate(3.577 -8703.906 16871.564)" style="display:block"/><path fill="#58CC02" d="M198.976.515c-26.37 45.909-80.206 70.027-133.554 58.669C12.074 47.826-27.518 3.817-33.258-48.93c-1.195-10.977 8.679-19.874 19.504-17.569L188.17-23.511C198.993-21.206 204.464-9.04 198.976.515z" transform="rotate(-5.563 6752.465 -10384.14)" style="display:block"/><path stroke-linecap="round" stroke-linejoin="round" stroke="#F49000" stroke-width="35" d="M256.25 102.5 260 74.75" fill="none" transform="rotate(4.007 -7770.41 15295.218)" style="display:block"/><path stroke-linecap="round" stroke-linejoin="round" stroke="#F49000" stroke-width="35" d="m138 147-27-7.75" fill="none" transform="rotate(9.007 -3150.93 7005.204)" style="display:block"/><g mask="url(#bs)" style="display:block"><path fill="#89E219" d="M1234.795 627.986c-.98 8.626-7.61 15.902-16.528 17.877-8.918 1.975-17.904-1.841-22.293-9.279-.913-1.547.005-3.546 1.814-3.947l34.291-6.345c1.81-.392 2.92-.101 2.716 1.694zm-58.421 12.308c-2.37 8.345-10.095 14.397-19.214 14.831-9.12.434-17.365-4.858-20.484-12.941-.65-1.682.582-3.498 2.432-3.586l34.518-1.644c1.85-.088 3.241 1.604 2.748 3.34zm35.065 20.127c-1.574 8.342-8.697 14.966-17.733 16.261-9.038 1.293-17.741-3.065-21.607-10.627-.804-1.573.252-3.458 2.085-3.72l33.66-5.318c1.834-.269 3.923 1.669 3.595 3.404zm23.811-68.132c-22.293 1.024-42.103-11.338-51.62-30-8.184.347-14.117.587-17.789.746-6.524.286-11.867.524-16.02.716-5.862 19.415-18.83 33.064-36.303 34.17-20.587 1.303-40.854-22.838-42.905-53.02-1.55-22.79-1.67-34.036.1-46.26 1.9-13.119 6.919-22.522 14.467-29.273.576-11.898 9.787-21.983 14.182-22.11 2.472-.072 2.273.788 1.92 14.118 4.544-17.76 13.614-23.24 17.692-26.314 5.107-3.848 11.143-5.76 11.405 2.464.132 3.913 2.991 47.071 27.768 48.203 2.339.107 3.839.124 6.792-.142 15.395-1.387 44.833-33.578 56.3-46.83 7.135-8.245 11.645-6.642 13.377-3.985 3.941 6.033 5.329 12.331 4.376 18.708l9.586-11.836c1.887-2.317 5.485-2.145 7.117.352 4.245 6.496 5.958 14.152 5.142 21.63 14.705 9.275 24.78 25.353 25.647 44.036l1.25 27.093c1.401 30.374-22.096 56.136-52.484 57.534z"/></g><g style="display:block"><path fill="#F49000" d="M1190.54 560.916c-.488-10.61-9.486-18.814-20.096-18.324-10.013.46-17.991 8.535-18.334 18.553l-.606 27.416c-.409 11.932 9.451 21.675 21.377 21.125 11.28-.52 20.003-10.086 19.483-21.367l-1.823-27.403z"/><path fill="#B16900" d="M1183.708 562.827c.314-8.202-6.455-14.917-14.654-14.539-7.276.336-13.083 6.188-13.361 13.467l-.684 26.298c-.314 8.202 6.454 14.917 14.653 14.538 7.277-.335 13.083-6.187 13.362-13.466l.684-26.298z"/><path fill="#FFB8D1" d="M1183.677 572.176c-.168.004-.337.01-.505.017-12.64.584-22.414 11.302-21.831 23.942.073 1.584.306 3.123.681 4.602a13.93 13.93 0 0 0 7.645 1.855c7.277-.336 13.083-6.188 13.362-13.468l.648-16.948z"/><path fill="#FFC200" d="M1139.108 563.762c-.142.74.287 1.461.992 1.727l10.194 1.698 41.31-4.391c.926-.147 1.535-1.053 1.26-1.949-3.623-11.813-14.875-20.546-27.788-19.951-13.07.602-23.613 10.556-25.968 22.866z"/><path fill="#FFDE00" d="M1168.75 552.467c2.088.832 4.397-.26 5.182-2.337.786-2.076-.211-4.54-2.336-5.182-4.148-1.252-9.274-1.248-13.393.524-2.04.878-3.031 3.195-2.185 5.248.845 2.052 3.18 2.996 5.247 2.185 1.772-.696 5.398-1.27 7.485-.438z"/></g><g style="display:block"><path fill="#FFF" d="M1269.242 532.466c.975 21.137-15.37 39.062-36.508 40.037-21.138.974-39.063-15.37-40.037-36.508l-.993-21.529c-.975-21.137 15.37-39.062 36.508-40.037 21.138-.974 39.062 15.37 40.037 36.508l.993 21.529zm-129.585 5.974c.975 21.138-11.374 38.88-27.584 39.627-16.207.747-30.138-15.782-31.113-36.92l-.993-21.528c-.975-21.138 11.377-38.878 27.583-39.626 16.21-.747 30.14 15.782 31.114 36.92l.993 21.527z"/><path fill="#4B4B4B" d="M1105.113 536.321c.597 9.898 7.42 17.546 15.256 17.076 7.826-.48 13.682-8.884 13.086-18.781l-1.151-19.124c-12.613 6.275-20.159-10.712-11.578-16.844-.657-.278-2.555-.43-3.677-.233-9.661 1.77-13.761 11.323-12.827 23.165.741 9.49.891 14.741.891 14.741zm95.007-4.41c.166 9.922 8.336 17.826 18.259 17.66 9.912-.167 17.817-8.337 17.66-18.25l-.32-19.154c-13.6 5.144-18.968-9.878-14.692-17.37a17.57 17.57 0 0 0-3.567-.29c-1.91.028-3.744.357-5.461.947-9.886 3.907-12.201 14.861-12.12 21.692.082 6.832.241 14.764.241 14.764z"/><path fill="#8EDF00" d="M1107.858 472.646c-26 1.583-30.399 15.015-31.518 23.106-2.361 17.048 2.286-.964 2.286-.964 17.044-25.42 48.1-23.984 64.976 12.969 4.483-20.341-.382 1.167-2.435-13.493s-14.782-22.745-33.309-21.618zm-21.056 107.431c6.064 3.017 8.265 7.292 22.803 10.307 14.537 3.015 10.895 3.027 13.14 3.406-3.725-2.146-29.632-10.443-35.943-13.713zm141.933-110.185c-30.944-.658-41.39 20.012-41.05 37.246.339 17.234.356 1.257.356 1.257 8.249-48.874 60.74-47.772 81.506-16.438-.032-8.048 2.516 21.64 1.083 6.837-1.432-14.803-19.846-28.433-41.895-28.902zm-6.248 115.064c-12.611-2.02-16.602-2.817 7.276 1.938 19.226 3.827 31.877-4.865 41.072-15.912-5.641 6.337-25.999 15.604-48.348 13.974z"/></g></g><g clip-path="url(#bC)" style="display:block" transform="matrix(-1 0 0 1 1976 -43.5)"><path fill="#FFCBA3" d="M221.235-328.272c5.893 0 10.67 4.829 10.67 10.785 0 5.957-4.777 10.786-10.67 10.786s-10.67-4.829-10.67-10.786c0-5.956 4.777-10.785 10.67-10.785z" transform="rotate(1.837 -14308.432 31479.212)" style="display:block"/><path fill="#FFB100" d="M233.659-320.292c-6.184-4.569-11.346-2.612-14.23.748-2.883 3.36-3.876 9.77 1.848 14.334 5.725 4.564 17.99 18 26.264 28.545 3.174 4.046 10.61 5.996 16.225 1.052 5.615-4.944 3.689-12.485.825-16.664-5.791-8.449-24.749-23.446-30.932-28.015z" transform="rotate(1.837 -14308.681 31494.801)" style="display:block"/><path fill="#3D3D3D" d="M174.368-315.056c0 9.562-7.752 17.314-17.314 17.314-9.562 0-17.314-7.752-17.314-17.314 0-9.562 7.752-17.315 17.314-17.315 9.562 0 17.314 7.753 17.314 17.315zm-20.889-10.142c-13.51-11.937-14.787-32.568-2.85-46.079l22.652-26.694c11.937-13.512 32.567-14.788 46.08-2.85 14.325 12.657 14.76 34.86.938 48.067l-.997.596a94.763 94.763 0 0 0-10.584 11.98l-7.422 9.988c-11.403 15.344-33.49 17.65-47.817 4.992z" transform="rotate(1.837 -17736.453 32297.453)" style="display:block"/><path fill="#E89665" d="M170.119-403.653c2.087.944 3.005 3.418 2.051 5.527-.954 2.109-6.986 5.386-6.986 5.386s-1.522-6.695-.568-8.804c.954-2.108 3.417-3.052 5.503-2.109z" transform="rotate(2.357 -13599.259 25111.32)" style="display:block"/><path fill="#FFCBA3" d="M219.585-404.105c-21.544-12.439-49.093-5.057-61.532 16.488-12.439 21.545-5.057 49.093 16.487 61.532l29.192 16.854 45.045-78.02-29.192-16.854z" transform="rotate(1.837 -17721.849 32252.423)" style="display:block"/><g style="display:block"><path fill="#FFB100" d="M1226.031 206.597c-21.011 26.805-23.834 90.52 44.348 115.666l37.033-56.338 35.563-60.815c-51.902-30.755-90.272-32.539-116.944 1.487z"/><path fill="#FFF" d="M1263.58 202.583c2.03 2.134 1.682 5.757-.775 8.093-2.457 2.335-6.092 2.497-8.12.363-2.03-2.134-1.682-5.756.775-8.091 2.457-2.335 6.092-2.499 8.12-.365zm-32.818-9.194c24.765 15.016 47.98-6.502 37.683-11.77-3.969.114-9.6 1.905-14.39 3.323-9.677-1.33-18.12 3.348-23.293 8.447zm-16.165 30.3c18.977 11.268 44.612-19.613 23.922-31.948-5.126 2.9-19.008 14.586-23.922 31.949z"/><path fill="#FF9500" d="M1293.383 256.797c-20.112 32.39-32.663 59.518-23.425 65.254 9.238 5.737 29.75-17.299 49.863-49.689 20.112-32.39 32.206-61.868 22.968-67.605-9.238-5.736-29.295 19.65-49.406 52.04zm-39.278-71.857c16.797 1.44 40.444 10.897 56.403 19.622a7.99 7.99 0 0 0 8.17-.315c2.936-1.892 5.333-5.749 9.81-7.247-30.081-15.453-54.473-19.544-74.383-12.06zm-35.903 35.423c-10.876 26.716-7.454 67.785 31.986 92.174-3.584-14.884 12.993-42.306 19.117-55.926 1.7-3.781.244-8.234-3.371-10.263-9.818-5.51-32.7-19.718-47.732-25.985z"/></g><path fill="#FFCBA3" d="M208.585-408.855c-7.835-3.645-36.835-2.645-50.532 21.238-12.377 21.58-5.057 49.093 16.487 61.532 0 0 2.21 1.585 4.192 2.604C165-376.5 201.25-403.25 213.777-407.001c-1.277-.999-5.192-1.854-5.192-1.854z" transform="rotate(1.837 -17736.204 32281.864)" style="display:block"/><g style="display:block"><path fill="#9F9F9F" d="M1191.583 209.525c-6.406 16.777-2.65 36.717 10.562 49.13 4.584-17.993 3.796-38.782-10.562-49.13z"/><path fill="#B23232" d="m1222.504 200.058 1.036 3.4c.975 3.204-.956 6.5-4.313 7.36-3.357.86-6.87-1.043-7.846-4.247l-1.036-3.4c-.976-3.206.955-6.5 4.313-7.36 3.357-.86 6.87 1.041 7.846 4.247z"/></g><g mask="url(#bD)" style="display:block"><path fill="#F14C4C" d="M1216.079 205.844a6.5 6.5 0 0 1 5.193 4.062 5.999 5.999 0 0 1-10.467-1.714l-.173-.51a6.494 6.494 0 0 1 5.447-1.838z"/></g><g mask="url(#bE)" style="display:block"><path fill="#FFF" d="M1198.802 180.8c2.733-4.579 6.017-7.654 7.333-6.868l1.772 1.084c1.255.75-.067 5.202-2.701 9.614-2.633 4.41-5.926 7.689-7.181 6.94l-1.79-1.055c-1.317-.786-.167-5.136 2.567-9.715zm-12.376 20.86c2.734-4.58 6.018-7.655 7.334-6.869.048.03 1.724 1.055 1.772 1.083 1.255.75-.068 5.203-2.702 9.615-2.633 4.411-5.925 7.689-7.18 6.94-.048-.03-1.742-1.026-1.79-1.055-1.317-.786-.168-5.135 2.566-9.714z"/><path fill="#4B4B4B" d="M1188.25 199.7c1.31-2.193 2.883-3.667 3.514-3.29.023.014 1.225.654 1.248.668.601.36-.033 2.493-1.294 4.606-1.262 2.113-2.839 3.683-3.44 3.324-.023-.014-1.234-.64-1.257-.654 2.046-2.391 2.733-4.96 1.23-4.654zm9.655-16.332c1.31-2.194 2.883-3.667 3.513-3.29.023.013 1.226.654 1.248.668.602.359-.032 2.493-1.294 4.606-1.261 2.113-2.839 3.683-3.44 3.325-.023-.014-1.234-.64-1.257-.654 2.046-2.392 2.733-4.962 1.23-4.655z"/><path stroke-linecap="round" stroke-linejoin="round" stroke="#E89665" stroke-width="3" d="m-50.353 5.574 8.892 4.251-8.985 3.287m74.943-6.57L17.39 8.811l8.055 3.69" fill="none" transform="matrix(.44575 -.74663 .21466 .12815 1200.596 182.983)"/></g><path fill="#FFCBA3" d="M192.241-314.708c7.22 0 13.073 5.916 13.073 13.214s-5.853 13.213-13.073 13.213c-7.22 0-13.072-5.915-13.072-13.213 0-7.298 5.852-13.214 13.072-13.214z" transform="rotate(1.837 -16124.199 29968.743)" style="display:block"/><path fill="#FFB100" d="M204.51-313.599c-9.363-.145-11.283 6.12-11.473 11.506-.19 5.386.988 11.742 9.892 12.208 8.905.465 36.23 3.868 49.026 5.235 5.232.552 12.219-2.563 13.196-10.165.976-7.603-5.606-12.102-10.637-13.38-10.171-2.584-40.64-5.258-50.003-5.404z" transform="rotate(1.837 -16140.288 29999.671)" style="display:block"/><path stroke-linecap="round" stroke-linejoin="round" stroke="#FF9500" stroke-width="12" d="M370.75-299.25s6.382 2.59 12 6.25" fill="none" transform="rotate(11.819 -1814.688 4614.458)" style="display:block"/><path stroke-linecap="round" stroke-linejoin="round" stroke="#FF9500" stroke-width="12" d="M349-258.75s4.779 6.517 8 12.25" fill="none" transform="rotate(-17.127 2622.258 -3190.572)" style="display:block"/><g style="display:block"><path stroke-linecap="round" stroke-linejoin="round" stroke="#00BDFF" stroke-width="7" d="m1169.298 157.68 6.537-3.304m-.631 13.522 5.666-3.156m-6.4 9.762c10.044 1.19 15.6-2.899 20.967-.392" fill="none"/><path fill="#00BDFF" d="M1122.124 187.727c-2.083.497-3.839-1.6-2.986-3.563l2.365-5.45 6.4 7.636-5.779 1.377zm-4.488-8.848c-1.784-1.185-1.45-3.899.569-4.614l5.599-1.987-1.22 9.888-4.948-3.287zm24.817 13.707c-9.75 2.425-19.622-3.513-22.047-13.263-2.426-9.752 3.513-19.622 13.264-22.048 0 0 11.535-2.78 19.712-6.622 8.178-3.842 19.864-1.686 24.73 7.105 4.867 8.79 1.315 19.638-7.105 24.729-8.42 5.09-28.554 10.099-28.554 10.099z"/><path fill="#FFF" d="M1141.496 184.433a6.173 6.173 0 0 1-7.845-3.831l-2.393-6.965a6.173 6.173 0 0 1 11.675-4.013l2.393 6.964a6.173 6.173 0 0 1-3.83 7.845z"/><path fill="#FFA3A3" d="M1135.952 174.828c.567.257.8.938.512 1.489l-.792 1.509c-.44.841-1.674.747-1.982-.151l-.761-2.212c-.309-.898.606-1.731 1.471-1.339l1.552.704z"/><path fill="#00729A" d="M1131.881 180.263a2.274 2.274 0 1 0-4.464-.872 2.274 2.274 0 0 0 4.464.872zm-1.25-3.775a2.273 2.273 0 1 0-4.463-.87 2.273 2.273 0 1 0 4.463.87z"/></g></g><g clip-path="url(#bK)" style="display:block" transform="matrix(-1 0 0 1 1916 -23.5)"><g style="display:block"><path fill="#4CC5FF" d="M1603.475 795.16c3.092-5.249 9.854-6.996 15.102-3.902l19.884 11.72c5.248 3.094 6.995 9.854 3.901 15.102l-2.983 5.06c-6.229 10.228-13.541 7.353-25.869 2.21-11.68-5.779-19.457-13.238-13.972-23.3l3.937-6.89z"/><path fill="#1CB0F6" d="M1618.477 810.19c-8.759-4.866-11.742-11.612-9.09-16.458 4.151-7.583 16.438-25.25 24.73-33.427 5.522-5.447 25.344-16.89 46.721-24.733 9.445-3.463 19.907 1.382 23.373 10.826 3.465 9.443-1.382 19.907-10.825 23.373-11.598 4.258-30.405 14.478-34.014 16.837-2.628 3.153-13.051 15.184-18.192 24.611-3.317 6.083-14.793 3.364-22.703-1.03z"/><path stroke-linecap="round" stroke="#FF4B4B" stroke-width="12.767" d="M1588.607 833.95c10.392 2.563 21.32-2.08 21.32-2.08" fill="none"/></g><g style="display:block"><path fill="#A46648" d="m1652.275 670.045 29.81 39.292c4.118 5.255 11.717 6.177 16.972 2.059 5.256-4.117 6.178-11.715 2.06-16.972l-32.332-37.025c-3.493-4.56-10.02-5.424-14.579-1.932-4.559 3.492-5.423 10.02-1.931 14.578z"/><path stroke-linecap="round" stroke-linejoin="round" stroke="#A46648" stroke-width="8.338" d="m1641.222 656.836 11.242 5.74m-4.126-19.986.572 12.9m8.623-14.156-2.262 14.895m10.139-9.181-4.385 8.339" fill="none"/></g><g style="display:block"><path fill="#3D3D3D" d="m1722.391 644.555 26.238-18.17c9.583-6.625 22.722-4.229 29.347 5.354l6.427 9.294c6.625 9.583 4.228 22.722-5.354 29.348l-8.312 5.746c-9.583 6.626-22.722 4.23-29.348-5.354l-18.998-26.218zm9.635-5.258-15.86 44.738-26.93-10.183c-9.809-3.977-14.538-15.154-10.561-24.964l3.858-9.514c3.975-9.81 15.152-14.538 24.96-10.56l24.533 10.483zm24.759 20.797c.877 10.548-51.098 14.871-51.976 4.322l-2.818-33.871c-.877-10.55 6.963-19.812 17.513-20.69l13.774-1.145c10.55-.877 19.812 6.962 20.69 17.511l2.817 33.873z"/><path fill="#A46648" d="m1733.932 713.723-36.75-13.452c-8.216-3.007-12.947-11.623-11.076-20.17l5.231-23.894a14.638 14.638 0 0 1 10.975-10.832l27.903-6.36a19.867 19.867 0 0 1 18.24 5.103l10.986 13.72a26.795 26.795 0 0 1 4.174 26.153l-7.239 19.309c-3.318 9.078-13.368 13.745-22.444 10.423z"/><path fill="#FDB02A" d="m1762.316 687.453 1.299-3.462a26.795 26.795 0 0 0-4.174-26.153l-10.986-13.72a19.867 19.867 0 0 0-18.24-5.104l-14.487 3.303c11.35 3.093 33.039 12.485 46.588 45.136zm-46.588-45.136-13.416 3.058a14.638 14.638 0 0 0-10.975 10.832l-1.8 8.226c8.535-11.583 26.19-22.116 26.19-22.116zm.753-1.416c.21.7-.296 1.357-1.024 1.425-6.539.612-13.874-3.243-15.171-10.906-.122-.72.292-1.413 1.024-1.425 9.687-.143 13.592 5.653 15.17 10.906zm-.643 1.363a1.102 1.102 0 0 1-1.424-1.024c-.148-4.191.68-12.228 10.905-15.171.703-.202 1.401.293 1.425 1.024.258 7.668-3.487 12.936-10.906 15.17z"/><path fill="#A46648" d="M1761.323 677.557a8.151 8.151 0 0 1-10.672 4.364 8.151 8.151 0 0 1-4.364-10.671 8.152 8.152 0 0 1 10.672-4.364 8.152 8.152 0 0 1 4.364 10.671z"/></g><g style="display:block"><path fill="#FFF" d="M1713.158 660.424c.379-3.934 3.956-7.212 7.85-7.193 3.894.017 6.523 3.326 5.767 7.258l-1.472 7.667c-.668 3.475-3.897 6.192-7.338 6.175-3.44-.017-6.385-1.572-6.05-5.047l1.243-8.86z"/><path fill="#A46648" d="M1710.904 672.62c1.697-2.579 11.749-5.765 15.902-4.86l-4.313 9.31c-6.242 1.226-11.59-4.45-11.59-4.45z"/><path stroke-linecap="round" stroke="#86401F" stroke-width="4" d="M1696.61 666.944c4.337-3.134 8.575.745 8.575.745" fill="none"/><path fill="#86401F" d="M1709.495 668.254c.1.015 1.92 3.441 1.716 4.765a2.425 2.425 0 0 1-4.793-.742c.205-1.324 2.977-4.038 3.077-4.023zm-.654 7.11-2.1.098a2.497 2.497 0 0 1-.23-4.988l2.099-.098a2.498 2.498 0 0 1 .231 4.988z"/><path fill="#A41414" d="M1724.05 678.988c-1.629 5.916-11.728 10.169-18.89 5.866-2.115-1.271-1.276-4.248 1.06-5.044 3.2-1.092 6.033-2.897 8.658-5.346 2.625-2.45 5.93-3.089 7.946-.628 1.056 1.29 1.814 3.016 1.226 5.152z"/><path stroke-linecap="round" stroke="#3D3D3D" stroke-width="6.095" d="m1721.166 659.905-.478 4.952" fill="none"/><path fill="#E64340" d="M1713.494 683.136c-1.351-2.364.25-5.821 3.578-7.722 2.182-1.247 4.563-1.514 6.324-.884.744 1.184 1.142 2.657.705 4.428-.898 3.642-4.497 5.538-6.116 6.22-1.961.09-3.674-.611-4.491-2.042z"/><path fill="#E7E7E7" d="M1719.016 676.261a5.596 5.596 0 0 1-9.313 2.025c1.865-1 2.895-1.63 5.226-3.852 2.33-2.223 5.931-3.089 7.947-.627.279.341.534.712.747 1.112-.346.342-1.551 2.242-4.607 1.342z"/></g><path fill="#FDB02A" d="m749.545 173.4-6.236 3.947c-11.545 7.307-26.828 3.871-34.135-7.675l-3.946-6.236c-7.229-11.421-3.83-26.538 7.59-33.766 14.99-9.487 34.832-5.027 44.319 9.963 7.228 11.421 3.829 26.539-7.592 33.767zm-2.502-9.683-33.434-7.517 4.609-20.499c2.076-9.233 11.242-15.035 20.475-12.959 9.232 2.076 15.034 11.242 12.958 20.475l-4.608 20.5z" transform="rotate(2.126 -14126.751 26738.531)" style="display:block"/><path fill="#1CB0F6" d="M740.472 155.971c10.32 11.635 9.254 29.433-2.381 39.753s-29.433 9.254-39.753-2.381-9.254-29.433 2.381-39.753 29.433-9.254 39.753 2.381z" transform="rotate(2.126 -14140.221 26738.281)" style="display:block"/><g style="display:block"><path stroke-linecap="round" stroke-linejoin="round" stroke="#A46648" stroke-width="13" d="m1758.932 738.518 10.1-22.943m-.85 25.615 16.592-12.45" fill="none"/><path fill="#A46648" d="m1724.041 724.474 12.9 31.36 32.957-19.341s-32.23-21.86-32.616-21.986c-2.7-1.925-6.273-2.39-9.254-.828a8.586 8.586 0 0 0-3.987 10.795zm52.45 26.442.018-.408c.221-5.616-1.611-10.835-4.789-14.831-3.52-4.429-8.693-7.357-14.553-7.665-11.149-.586-20.468 8.536-20.934 20.358l-.017.408c-.466 11.822 8.091 21.932 19.24 22.516 11.15.584 20.567-8.54 21.035-20.378z"/><path stroke-linecap="round" stroke="#86401F" stroke-width="4" d="m1746.002 740.422 14.46-1.299c3.667-.33 7.063 2.43 7.585 6.16 0 0 0 0 0 0 .522 3.73-2.027 7.023-5.694 7.352l-14.461 1.299" fill="none"/></g><g style="display:block"><path fill="#1CB0F6" d="M1693.583 769.41c-8.942.327-17.302-5.425-19.907-14.408-.973-3.357-2.241-7.401-3.917-11.546-6.297 4.547-11.897 10.373-17.784 15.718-8.142 7.391-20.734 6.783-28.125-1.358-7.39-8.142-6.783-20.735 1.358-28.125.347-.314 9.13-7.753 18.298-15.102 18.128-14.534 27.002-19.725 36.783-18a20.711 20.711 0 0 1 12.86 7.793c10.533 13.297 15.831 28.887 18.906 39.49 3.075 10.597-3.026 21.681-13.624 24.755a20.062 20.062 0 0 1-4.848.782z"/><path stroke-linecap="round" stroke-linejoin="round" stroke="#0395DB" stroke-width="4" d="m1653.336 755.757 15.922-13.973s5.182 21.95 12.908 24.543" fill="none"/><path fill="#5EC6FF" d="M1640.68 771.517c-3.558 3.2-12.96-1.453-21.001-10.393-8.04-8.94-11.674-18.783-8.115-21.984.918-.825 11.678-10.337 13.918-12.258 3.607-3.094 12.987 1.84 20.726 10.256 7.74 8.417 11.63 18.412 8.077 21.964-3.553 3.553-13.126 11.985-13.604 12.415z"/><path stroke-linecap="round" stroke="#33B4F7" stroke-width="4.078" d="M1616.754 741.087c4.142 1.288 9.325 4.894 13.964 10.071 4.64 5.176 7.66 10.723 8.488 14.981" fill="none"/><path stroke-linecap="round" stroke="#FF4B4B" stroke-width="13.049" d="M1605.401 743.046c3.632 10.346 12.035 18.515 12.035 18.515" fill="none"/></g></g><g clip-path="url(#bO)" style="display:block" transform="matrix(-1 0 0 1 1916 -23.5)"><path fill="#FFB7E3" d="M467.017-248.933s-21.285-1.263-52.276-3.165c-15.682-.962-21.741 12.598-21.142 21.885.599 9.287 9.345 23.196 24.422 18.787 30.521-8.926 62.293-17.748 62.293-17.748l-13.297-19.759z" transform="rotate(11.909 -1770.135 4717.226)" style="display:block"/><g style="display:block"><path fill="#FFB7E3" d="M1393.211 305.752c-29.96-8.208-50.185-12.612-61.628-15.407-11.443-2.794-23.49 13.153-24.586 28.65-1.106 15.608 8.745 28.36 20.81 28.473 12.194.117 28.576 1.101 60.22-1.243 15.595-1.156 19.89-9.93 21.226-17.314 1.336-7.386-.847-18.997-16.042-23.16z"/><path fill="#FF9BDE" d="M1341.077 325.052c-4.05 12.12-14.002 19.241-22.228 15.905-8.226-3.337-11.612-15.867-7.562-27.988 4.05-12.12 14.002-19.242 22.228-15.905 8.226 3.336 11.61 15.867 7.562 27.988z"/></g><path stroke-linecap="round" stroke-linejoin="round" stroke="#FF7AD5" stroke-width="25.828" d="M332.239-229.744c4-8.5 8.527-19.113 13.59-28.4" fill="none" transform="rotate(-13.675 3074.582 -4027.575)" style="display:block"/><path stroke-linecap="round" stroke-linejoin="round" stroke="#FF86D0" stroke-width="15" d="M502.881-191.052c.376-4.651-.544-10.655-2.324-15.564" fill="none" transform="rotate(-25.877 2243.289 -2033.88)" style="display:block"/><path fill="#FFB7E3" d="M477.637-216.167c-7.613 5.833-.003.004-.006.006 0 0-18.631 14.661-50.031 23.985-8.308 2.467-15.805 6.766-15.948 15.431-.142 8.665 6.764 15.82 15.43 15.948 28.668.422 61.793-23.578 70.09-30.808 7.129-6.212 7.901-15.269 2.504-22.049-5.394-6.777-14.426-8.346-22.039-2.513z" transform="rotate(11.05 -1999.112 5107.732)" style="display:block"/><path fill="#FFB7E3" d="M457.463-227.353c-11.621 5.879-32.272 15.702-43.279 41.145-11.007 25.443 20.779 26.539 27.111 14.999 7.705-14.041 24.272-24.118 27.134-26.05 17.148-11.237 6.297-41.165-10.961-30.097" transform="rotate(7.782 -3226.902 7219.63)" style="display:block"/><path fill="#FFB3E6" d="M528.609-252.517c-1.324-2.088 4.65-9.711 4.65-9.711l14.956 10.268a12.758 12.758 0 0 0 7.223 2.241l22.195.002c4.776 0 7.827 5.094 5.572 9.305l-2.776 5.185a32.342 32.342 0 0 0-3.439 10.258c-.964 6.153-7.198 9.99-13.126 8.079l-5.291-1.706a42.078 42.078 0 0 1-26.151-24.402l-3.813-9.519z" transform="rotate(-1.751 19791.22 -31904.83)" style="display:block"/><g style="display:block"><path fill="#FFB7E3" d="M1470.976 303.517c16.842 15.124 18.233 41.036 3.11 57.878-7.325 8.156-20.686 13.988-33.56 10.2-13.795-4.06-22.109-16.89-27.492-27.248-3.214-6.183-5.273-11.62-6.087-18.402-.814-6.781 1.299-14.25 6.153-19.317 15.66-16.345 41.036-18.234 57.876-3.11z"/><path fill="#FF86D0" d="M1483.822 341.848a41.1 41.1 0 0 0 .688-5.627l-5.88-16.054-17.494-23.198a40.495 40.495 0 0 0-3.743-1.55l-5.888-1.62c-.022-.005-.044-.011-.067-.015-8.59 6.853-10.906 20.434-4.434 31.339 7.614 12.83 20.516 20.469 36.818 16.725z"/><path fill="#FFB3E6" d="M1459.666 331.78a.666.666 0 0 1 .978.039l2.547 2.982a.666.666 0 0 1-.036.906l-4.696 4.658a.666.666 0 0 1-.943-.005l-2.736-2.76a.667.667 0 0 1 .003-.942l4.883-4.878zm-11.403-23.697c.367-.13.766.08.866.456l1.017 3.787a.666.666 0 0 1-.423.802l-6.242 2.186a.666.666 0 0 1-.849-.41l-1.284-3.668a.667.667 0 0 1 .408-.849l6.507-2.304z"/><path fill="#1CB0F6" d="M1460.187 289.131c27.489-.298 38.785 23.57 30.428 42.534l-1.07 2.425c-3.716 8.435-23.652 10.662-35.232-8.069-13.652-20.076-4.487-36.343 5.874-36.89z"/></g><path stroke-linecap="round" stroke-linejoin="round" stroke="#1CB0F6" stroke-width="21" d="M498.096-355.04s-2.895 26.34-4.083 38.705c-1.205 12.54-3.097 36.01-3.097 36.01" fill="none" transform="rotate(4.728 -5931.305 11849.868)" style="display:block"/><path stroke-linecap="round" stroke="#1CB0F6" stroke-width="21" d="M510.406-244.437s24.8 4.267 37.201 6.869c14.827 3.111 44.43 10.258 44.43 10.258" fill="none" transform="rotate(4.728 -5931.305 11849.868)" style="display:block"/><path fill="#E18E70" d="M495.071-354.738c-6.063 6.951-16.614 7.671-23.566 1.608-6.952-6.064-7.672-16.615-1.609-23.566 6.064-6.952 16.615-7.673 23.567-1.609 6.952 6.064 7.671 16.615 1.608 23.567z" transform="rotate(4.728 -5933.75 12097.098)" style="display:block"/><path fill="#E18E70" d="M592.492-232.902c-7.193-7.197-7.191-18.862.006-26.057 7.198-7.194 18.865-7.191 26.058.006 7.194 7.198 7.191 18.864-.007 26.058-7.198 7.194-18.862 7.19-26.057-.007z" transform="rotate(4.728 -6158.232 11689.737)" style="display:block"/><path fill="#FFB3E6" d="M606.933-297.91c-9.289 35.122-45.292 56.063-80.414 46.774-35.122-9.29-56.063-45.292-46.774-80.414 9.289-35.122 45.292-56.063 80.414-46.774 35.122 9.289 56.063 45.292 46.774 80.414z" transform="rotate(9.911 -2295.483 5618.539)" style="display:block"/><g style="display:block"><path fill="#E18E70" d="M1530.47 240.802c16.028 17.357 15.568 43.958-1.03 59.417-16.596 15.46-39.515 15.233-55.543-2.123-16.028-17.357-19.096-45.27-2.499-60.729 16.597-15.46 43.045-13.921 59.073 3.435z"/><path fill="#A70000" d="M1475.468 292.956c-1.586 3.424.88 11.03 14.571 16.116 13.691 5.087 17.88-3.724 18.806-5.72.925-1.998 3.617-10.808-3.137-13.318-5.293-1.966-13.044 2.065-19.616-.377-6.572-2.442-9.037-.124-10.624 3.3z"/><path fill="#FFF" d="M1505.71 290.036c-2.504-.93-5.558-.519-8.778-.085-3.586.483-7.378.994-10.84-.292-3.045-1.131-5.207-1.241-6.81-.693 1.424 2.185 4.34 4.6 8.954 6.574 8.392 3.547 16.36 2.342 21.232-.183.181-2.59-1.653-4.54-3.759-5.321z"/><path fill="#9E4D31" d="M1487.412 274.698c.1.132-1.173 6.088-2.753 7.815-1.56 1.708-4.922.876-6.231-.866-1.31-1.742-.783-3.43 1.02-4.605 1.49-1.268 7.865-2.475 7.964-2.344zm-11.357-19.556c-.758-.176-1.129-.961-.828-1.753.3-.792 1.16-1.29 1.918-1.114 5.43 1.267 8.167 4.702 9.326 8.459 1.141 3.694.763 7.684.059 10.273-.22.806-1.034 1.384-1.82 1.293-.786-.092-1.245-.82-1.025-1.627.587-2.159.907-5.581-.052-8.688-.94-3.045-3.104-5.8-7.578-6.843zm35.363 29.918c.403.7 1.34.972 2.093.608.752-.365 1.035-1.228.632-1.928-3.068-5.329-7.664-7.793-12.146-8.654-4.414-.849-8.686-.144-11.32.78-.795.279-1.187 1.104-.876 1.842.31.739 1.207 1.111 2.002.833 2.19-.768 5.861-1.375 9.599-.657 3.669.706 7.43 2.685 10.016 7.176z"/><path fill="#3B3B3B" d="M1553.174 272.034c.302-1.957-1.529-3.777-3.304-3.893-1.587.148-3.53-.402-5.79-1.895-3.805-2.416-4.55-27.62-30.3-38.39-9.331-4.24-24.79-4.324-27.047 1.126-5.324 13.122-2.102 38.316 26.811 50.14 26.397 11.092 36.386.482 39.63-7.088z"/></g></g><g clip-path="url(#bY)" style="display:block" transform="matrix(-1 0 0 1 1916 -23.5)"><g mask="url(#bZ)" style="display:block"><g clip-path="url(#ca)"><path stroke-linecap="round" stroke-linejoin="round" stroke="#3D3D3D" stroke-width="24" d="M541.75 368c5.75 8.75 18.25 20.25 18.25 20.25s13-6 19.75-15" fill="none" transform="matrix(1 0 0 1 975 551.5)" style="display:block"/><path fill="#3D3D3D" d="M522.75 276.25c17.811 0 32.25 14.439 32.25 32.25s-14.439 32.25-32.25 32.25-32.25-14.439-32.25-32.25 14.439-32.25 32.25-32.25zM558.125 293c26.762-1.298 48.625 11.136 48.625 34.125s-23.464 30.261-46.375 28.375c-51.625-4.25-64.125-59.5-2.25-62.5z" transform="translate(971.5 545)" style="display:block"/><path fill="#DB8D74" d="M521.5 303c-16.5 11-42 12.5-66 13.5s-53.834 22.53-51 52c2.5 26 27.5 43 54.5 43.5 30.012.556 61-2.5 100.5-24s36.5-55.5 23.5-77-45-19-61.5-8z" transform="translate(975 551.5)" style="display:block"/><g mask="url(#cb)" style="display:block"><path fill="#FFAADE" d="M1492.5 854.5c13.323-2.391-152.067-42.155-142.5 67 11 125.5 215.436 30.845 181 38-18.75 3.896-37.5 2.218-51.976-5.091a52.71 52.71 0 0 1-8.246-5.143 46.815 46.815 0 0 1-6.736-6.261c-6.815-7.734-11.063-17.897-11.542-30.505-.979-25.793 20.5-54.5 40-58zm-31.923 3.641S1345 834 1349.5 920s139.447 52.785 139.447 52.785-71.447-13.785-71.29-57.179c.154-42.619 42.92-57.465 42.92-57.465zm-38.427 17.952-4.673 5.153 11.079 1.186 4.352-5.389-10.758-.95zm22.447-17.85S1344.5 853.5 1352.5 920.5s114.903 53.404 114.903 53.404-57.433-15.551-58.349-59.054c-.794-37.714 35.543-56.607 35.543-56.607zm-26.926 54.604-10.783.684.706 8.846 10.509-1.462-.432-8.068z"/><path fill="#A56641" d="M1460.577 858.141S1345 834 1349.5 920s139.447 52.785 139.447 52.785-71.447-13.785-71.29-57.179c.154-42.619 42.92-57.465 42.92-57.465z"/><path fill="#2CE69B" d="m1422.15 876.093-4.673 5.153 11.079 1.186 4.352-5.389-10.758-.95zm22.447-17.85S1344.5 853.5 1352.5 920.5s114.903 53.404 114.903 53.404-57.433-15.551-58.349-59.054c-.794-37.714 35.543-56.607 35.543-56.607zm-26.926 54.604-10.783.684.706 8.846 10.509-1.462-.432-8.068z"/></g><g mask="url(#cc)" style="display:block"><path fill="#3D3D3D" d="M1495 807c-23.5 1.25-32.501 22.011-33.25 36.25-.75 14.25 1.25 30 20 39 19.679 9.446 45-1 49.5-31 3.247-21.647-12.75-45.5-36.25-44.25z"/></g><path fill="#3D3D3D" d="M557.75 265.5c16.983 0 30.75 13.711 30.75 30.625s-13.767 30.625-30.75 30.625S527 313.039 527 296.125s13.767-30.625 30.75-30.625z" transform="translate(971.5 545)" style="display:block"/><path fill="#DB8D74" d="M512.021 320.5c6.639 0 12.02 5.382 12.02 12.021 0 6.639-5.381 12.02-12.02 12.02-6.639 0-12.021-5.381-12.021-12.02 0-6.639 5.382-12.021 12.021-12.021z" transform="matrix(.75 0 0 .75 1099.505 627.38)" style="display:block"/><g style="display:block"><path fill="#B82C2C" d="M1511.918 910.555a2.511 2.511 0 0 1 3.028 1.857l7.114 29.674a2.511 2.511 0 0 1-1.857 3.028l-.286.07c-9.544 2.287-19.134-3.596-21.422-13.138-2.288-9.544 3.594-19.135 13.137-21.423l.286-.068z"/><path fill="#FD5050" d="M1504.398 941.553a17.69 17.69 0 0 1-5.903-9.508 17.713 17.713 0 0 1 2.01-13.231 17.65 17.65 0 0 1 5.917 9.509 17.668 17.668 0 0 1-2.024 13.23z" opacity=".8"/></g><path stroke-linecap="round" stroke-linejoin="round" stroke="#3D3D3D" stroke-width="24" d="M541.75 368c5.75 8.75 18.25 20.25 18.25 20.25l.774-.099" fill="none" transform="matrix(1 0 0 1 975 551.5)" style="display:block"/><g style="display:block"><path fill="#FFF" d="M1545.742 926.94s5.177-3.323 9.955-6.653c4.305-6.786 7.651-13.952 9.63-21.225-2.636 1.314-7.74 7.558-9.714 10.946l-9.871 16.931zm4.916-28.499c-3.941-3.606-10.353-2.975-13.536 1.757l-7.855 11.602c9.41 5.403 12.276 13.168 12.276 13.168l8.99-14.086c2.188-3.253 3.244-9.737.125-12.44z"/><path fill="#3D3D3D" d="M1555.35 911.972c1.492-2.383 3.53-3.796 4.553-3.155 1.022.64.64 3.091-.853 5.474l-.94 1.5c-1.493 2.383-3.533 3.796-4.555 3.156-1.022-.641-.639-3.092.854-5.475l.94-1.5zm-14.2-.854c1.492-2.383 4.016-3.493 5.637-2.477 1.62 1.015 1.722 3.77.23 6.153l-.94 1.501c-1.493 2.383-4.017 3.491-5.638 2.476-1.62-1.015-1.723-3.77-.23-6.152l.94-1.501z"/></g><path stroke-linecap="round" stroke-linejoin="round" stroke="#3D3D3D" stroke-width="12" d="M568.75 333.5s7.5-2 11.5 1m17.608 3.473s7.344 2.513 8.997 7.232" fill="none" transform="translate(971.5 546.5)" style="display:block"/><path fill="#DB8D74" d="M571.295 372.25c4.029 0 7.295 3.217 7.295 7.186s-3.266 7.186-7.295 7.186-7.295-3.217-7.295-7.186 3.266-7.186 7.295-7.186z" transform="matrix(1.1 0 0 1.1 917.87 513.056)" style="display:block"/></g></g><g style="display:block"><path fill="#DB8D74" d="M1426.5 951.25c-8.006.66-18.703 6.314-15.75 16.75 2.65 9.367 13.049 8.113 20.828 5.096 3.672 4.904 9.672 1.654 7.672-3.346-3.348-8.37-5.691-19.083-12.75-18.5z"/><path stroke-linecap="round" stroke-linejoin="round" stroke="#FFAADE" stroke-width="25" d="m1440.25 930.75-6.5 27" fill="none"/></g></g></g></svg>